<?xml version="1.0" encoding="UTF-8" standalone="no"?>
<!-- Created with Inkscape (http://www.inkscape.org/) -->

<svg
   xmlns:dc="http://purl.org/dc/elements/1.1/"
   xmlns:cc="http://creativecommons.org/ns#"
   xmlns:rdf="http://www.w3.org/1999/02/22-rdf-syntax-ns#"
   xmlns:svg="http://www.w3.org/2000/svg"
   xmlns="http://www.w3.org/2000/svg"
   xmlns:sodipodi="http://sodipodi.sourceforge.net/DTD/sodipodi-0.dtd"
   xmlns:inkscape="http://www.inkscape.org/namespaces/inkscape"
   width="15.3787"
   height="15.3738"
   id="svg54896"
   version="1.1"
   inkscape:version="0.48+devel r11876"
   sodipodi:docname="arrow.svg">
  <defs
     id="defs54898" />
  <sodipodi:namedview
     id="base"
     pagecolor="#ffffff"
     bordercolor="#666666"
     borderopacity="1.0"
     inkscape:pageopacity="0.0"
     inkscape:pageshadow="2"
     inkscape:zoom="1.979899"
     inkscape:cx="184.50881"
     inkscape:cy="-412.50781"
     inkscape:document-units="px"
     inkscape:current-layer="layer1"
     showgrid="false"
     fit-margin-top="0"
     fit-margin-left="0"
     fit-margin-right="0"
     fit-margin-bottom="0"
     inkscape:window-width="1198"
     inkscape:window-height="1899"
     inkscape:window-x="0"
     inkscape:window-y="19"
     inkscape:window-maximized="0" />
  <metadata
     id="metadata54901">
    <rdf:RDF>
      <cc:Work
         rdf:about="">
        <dc:format>image/svg+xml</dc:format>
        <dc:type
           rdf:resource="http://purl.org/dc/dcmitype/StillImage" />
        <dc:title></dc:title>
      </cc:Work>
    </rdf:RDF>
  </metadata>
  <g
     inkscape:label="Layer 1"
     inkscape:groupmode="layer"
     id="layer1"
     transform="translate(1110.5465,1815.3247)">
    <path
       inkscape:connector-curvature="0"
       d="M -1098.2803,-1806.8372 -1102.4303,-1802.6872 C -1102.8528,-1802.2572 -1103.6103,-1802.2122 -1103.9865,-1802.6409 -1104.4103,-1803.0634 -1104.4103,-1803.7697 -1103.9865,-1804.2422 L -1101.7265,-1806.5047 -1106.7228,-1806.5047 C -1107.3365,-1806.5047 -1107.8553,-1807.0222 -1107.8553,-1807.6372 -1107.8553,-1808.2972 -1107.3365,-1808.8159 -1106.7228,-1808.8159 L -1101.7265,-1808.8159 -1103.9865,-1811.0784 C -1104.4103,-1811.5059 -1104.4103,-1812.2109 -1103.9865,-1812.6334 -1103.6103,-1813.0622 -1102.8528,-1813.0622 -1102.4303,-1812.5884 L -1098.2803,-1808.4834 C -1097.8565,-1808.0147 -1097.8565,-1807.3109 -1098.2803,-1806.8372 M -1102.8528,-1815.3247 C -1107.1003,-1815.3247 -1110.5465,-1811.8847 -1110.5465,-1807.6372 -1110.5465,-1803.3909 -1107.1003,-1799.9509 -1102.8528,-1799.9509 -1098.6128,-1799.9509 -1095.1678,-1803.3909 -1095.1678,-1807.6372 -1095.1678,-1811.8847 -1098.6128,-1815.3247 -1102.8528,-1815.3247"
       style="fill:#a7a5a6;fill-opacity:1;fill-rule:nonzero;stroke:none"
       id="path52544" />
  </g>
</svg>
