<?xml version="1.0" encoding="UTF-8" standalone="no"?>
<!-- Created with Inkscape (http://www.inkscape.org/) -->

<svg
   xmlns:dc="http://purl.org/dc/elements/1.1/"
   xmlns:cc="http://creativecommons.org/ns#"
   xmlns:rdf="http://www.w3.org/1999/02/22-rdf-syntax-ns#"
   xmlns:svg="http://www.w3.org/2000/svg"
   xmlns="http://www.w3.org/2000/svg"
   xmlns:sodipodi="http://sodipodi.sourceforge.net/DTD/sodipodi-0.dtd"
   xmlns:inkscape="http://www.inkscape.org/namespaces/inkscape"
   width="20.237499"
   height="20.2425"
   id="svg3919"
   version="1.1"
   inkscape:version="0.48+devel r11876"
   sodipodi:docname="bullet-grey.svg">
  <defs
     id="defs3921">
    <linearGradient
       x1="0"
       y1="0"
       x2="1"
       y2="0"
       gradientUnits="userSpaceOnUse"
       gradientTransform="matrix(-7e-7,15.382065,15.382065,7e-7,354.83789,559.53174)"
       spreadMethod="pad"
       id="linearGradient2476">
      <stop
         style="stop-opacity:1;stop-color:#ffffff"
         offset="0"
         id="stop2478" />
      <stop
         style="stop-opacity:1;stop-color:#ffffff"
         offset="0.00613503"
         id="stop2480" />
      <stop
         style="stop-opacity:1;stop-color:#e5e4e4"
         offset="1"
         id="stop2482" />
    </linearGradient>
  </defs>
  <sodipodi:namedview
     id="base"
     pagecolor="#ffffff"
     bordercolor="#666666"
     borderopacity="1.0"
     inkscape:pageopacity="0.0"
     inkscape:pageshadow="2"
     inkscape:zoom="2.8"
     inkscape:cx="10.310309"
     inkscape:cy="-4.4895494"
     inkscape:document-units="px"
     inkscape:current-layer="layer1"
     showgrid="false"
     fit-margin-top="0"
     fit-margin-left="0"
     fit-margin-right="0"
     fit-margin-bottom="0"
     inkscape:window-width="1198"
     inkscape:window-height="948"
     inkscape:window-x="0"
     inkscape:window-y="19"
     inkscape:window-maximized="0" />
  <metadata
     id="metadata3924">
    <rdf:RDF>
      <cc:Work
         rdf:about="">
        <dc:format>image/svg+xml</dc:format>
        <dc:type
           rdf:resource="http://purl.org/dc/dcmitype/StillImage" />
        <dc:title></dc:title>
      </cc:Work>
    </rdf:RDF>
  </metadata>
  <g
     inkscape:label="Layer 1"
     inkscape:groupmode="layer"
     id="layer1"
     transform="translate(-1.309821,-385.09808)">
    <g
       transform="matrix(1.25,0,0,-1.25,-432.11918,1104.2469)"
       id="g2464">
      <g
         id="g2466">
        <g
           id="g2472">
          <g
             id="g2474">
            <path
               inkscape:connector-curvature="0"
               d="M 350.068,575.046 C 348.373,575.046 347.017,573.655 347.017,571.959 L 347.017,571.959 347.017,562.453 C 347.017,560.758 348.373,559.399 350.068,559.399 L 350.068,559.399 359.574,559.399 C 361.27,559.399 362.66,560.758 362.66,562.453 L 362.66,562.453 362.66,571.959 C 362.66,573.655 361.27,575.046 359.574,575.046 L 359.574,575.046 350.068,575.046 Z"
               style="fill:url(#linearGradient2476);stroke:none"
               id="path2484" />
          </g>
        </g>
      </g>
    </g>
    <g
       id="g2494"
       transform="matrix(1.25,0,0,-1.25,21.206071,401.18058)">
      <path
         inkscape:connector-curvature="0"
         d="M 0,0 C 0,-1.695 -1.391,-3.055 -3.086,-3.055 L -12.592,-3.055 C -14.287,-3.055 -15.644,-1.695 -15.644,0 L -15.644,9.506 C -15.644,11.201 -14.287,12.593 -12.592,12.593 L -3.086,12.593 C -1.391,12.593 0,11.201 0,9.506 L 0,0 Z"
         style="fill:none;stroke:#a7a5a6;stroke-width:0.546;stroke-linecap:butt;stroke-linejoin:miter;stroke-miterlimit:4;stroke-opacity:1;stroke-dasharray:none"
         id="path2496" />
    </g>
    <g
       id="g2498"
       transform="matrix(1.25,0,0,-1.25,16.163321,395.23932)">
      <path
         inkscape:connector-curvature="0"
         d="M 0,0 C 0,-2.069 -1.7,-3.767 -3.804,-3.767 -5.874,-3.767 -7.569,-2.069 -7.569,0 -7.569,2.104 -5.874,3.802 -3.804,3.802 -1.7,3.802 0,2.104 0,0"
         style="fill:#5f6062;fill-opacity:1;fill-rule:nonzero;stroke:none"
         id="path2500" />
    </g>
  </g>
</svg>
