<?xml version="1.0" encoding="UTF-8" standalone="no"?>
<!-- Created with Inkscape (http://www.inkscape.org/) -->

<svg
   xmlns:dc="http://purl.org/dc/elements/1.1/"
   xmlns:cc="http://creativecommons.org/ns#"
   xmlns:rdf="http://www.w3.org/1999/02/22-rdf-syntax-ns#"
   xmlns:svg="http://www.w3.org/2000/svg"
   xmlns="http://www.w3.org/2000/svg"
   xmlns:sodipodi="http://sodipodi.sourceforge.net/DTD/sodipodi-0.dtd"
   xmlns:inkscape="http://www.inkscape.org/namespaces/inkscape"
   width="19.555"
   height="19.561251"
   id="svg3316"
   version="1.1"
   inkscape:version="0.48+devel r11876"
   sodipodi:docname="bullet-orange.svg">
  <defs
     id="defs3318" />
  <sodipodi:namedview
     id="base"
     pagecolor="#ffffff"
     bordercolor="#666666"
     borderopacity="1.0"
     inkscape:pageopacity="0.0"
     inkscape:pageshadow="2"
     inkscape:zoom="0.35"
     inkscape:cx="-649.50822"
     inkscape:cy="-155.93366"
     inkscape:document-units="px"
     inkscape:current-layer="layer1"
     showgrid="false"
     fit-margin-top="0"
     fit-margin-left="0"
     fit-margin-right="0"
     fit-margin-bottom="0"
     inkscape:window-width="1198"
     inkscape:window-height="948"
     inkscape:window-x="0"
     inkscape:window-y="19"
     inkscape:window-maximized="0" />
  <metadata
     id="metadata3321">
    <rdf:RDF>
      <cc:Work
         rdf:about="">
        <dc:format>image/svg+xml</dc:format>
        <dc:type
           rdf:resource="http://purl.org/dc/dcmitype/StillImage" />
        <dc:title></dc:title>
      </cc:Work>
    </rdf:RDF>
  </metadata>
  <g
     inkscape:label="Layer 1"
     inkscape:groupmode="layer"
     id="layer1"
     transform="translate(-518.79393,-356.86727)">
    <g
       id="g2348"
       transform="matrix(1.25,0,0,-1.25,538.34893,372.58852)">
      <path
         inkscape:connector-curvature="0"
         d="M 0,0 C 0,-1.698 -1.391,-3.072 -3.086,-3.072 L -12.592,-3.072 C -14.287,-3.072 -15.644,-1.698 -15.644,0 L -15.644,9.505 C -15.644,11.201 -14.287,12.577 -12.592,12.577 L -3.086,12.577 C -1.391,12.577 0,11.201 0,9.505 L 0,0 Z"
         style="fill:#f47229;fill-opacity:1;fill-rule:nonzero;stroke:none"
         id="path2350" />
    </g>
    <g
       id="g2352"
       transform="matrix(1.25,0,0,-1.25,533.30618,366.6474)">
      <path
         inkscape:connector-curvature="0"
         d="M 0,0 C 0,-2.089 -1.7,-3.77 -3.804,-3.77 -5.874,-3.77 -7.569,-2.089 -7.569,0 -7.569,2.086 -5.874,3.765 -3.804,3.765 -1.7,3.765 0,2.086 0,0"
         style="fill:#ffffff;fill-opacity:1;fill-rule:nonzero;stroke:none"
         id="path2354" />
    </g>
  </g>
</svg>
