<?xml version="1.0" encoding="UTF-8" standalone="no"?>
<!-- Created with Inkscape (http://www.inkscape.org/) -->

<svg
   xmlns:dc="http://purl.org/dc/elements/1.1/"
   xmlns:cc="http://creativecommons.org/ns#"
   xmlns:rdf="http://www.w3.org/1999/02/22-rdf-syntax-ns#"
   xmlns:svg="http://www.w3.org/2000/svg"
   xmlns="http://www.w3.org/2000/svg"
   xmlns:sodipodi="http://sodipodi.sourceforge.net/DTD/sodipodi-0.dtd"
   xmlns:inkscape="http://www.inkscape.org/namespaces/inkscape"
   width="485.45862"
   height="130.99513"
   id="svg1135"
   version="1.1"
   inkscape:version="0.48+devel r11876"
   sodipodi:docname="logo.svg">
  <defs
     id="defs1137">
    <clipPath
       clipPathUnits="userSpaceOnUse"
       id="clipPath859">
      <path
         inkscape:connector-curvature="0"
         d="M 0,595.28 841.891,595.28 841.891,0 0,0 0,595.28 Z"
         id="path861" />
    </clipPath>
  </defs>
  <sodipodi:namedview
     id="base"
     pagecolor="#ffffff"
     bordercolor="#666666"
     borderopacity="1.0"
     inkscape:pageopacity="0.0"
     inkscape:pageshadow="2"
     inkscape:zoom="0.35"
     inkscape:cx="1166.3008"
     inkscape:cy="-894.50244"
     inkscape:document-units="px"
     inkscape:current-layer="layer1"
     showgrid="false"
     fit-margin-top="0"
     fit-margin-left="0"
     fit-margin-right="0"
     fit-margin-bottom="0"
     inkscape:window-width="1198"
     inkscape:window-height="948"
     inkscape:window-x="0"
     inkscape:window-y="19"
     inkscape:window-maximized="0" />
  <metadata
     id="metadata1140">
    <rdf:RDF>
      <cc:Work
         rdf:about="">
        <dc:format>image/svg+xml</dc:format>
        <dc:type
           rdf:resource="http://purl.org/dc/dcmitype/StillImage" />
        <dc:title></dc:title>
      </cc:Work>
    </rdf:RDF>
  </metadata>
  <g
     inkscape:label="Layer 1"
     inkscape:groupmode="layer"
     id="layer1"
     transform="translate(1297.0151,493.13538)">
    <g
       transform="matrix(1.25,0,0,-1.25,-1582.2783,-54.71663)"
       id="g855">
      <g
         id="g857"
         clip-path="url(#clipPath859)">
        <g
           id="g863"
           transform="translate(232.6777,257.5361)">
          <path
             inkscape:connector-curvature="0"
             d="M 0,0 C 0,0.197 0.071,0.366 0.213,0.508 0.354,0.65 0.524,0.721 0.72,0.721 0.917,0.721 1.081,0.65 1.212,0.508 1.343,0.366 1.408,0.197 1.408,0 L 1.408,-4.538 7.683,-4.538 7.683,0.606 9.106,0.606 9.106,-10.647 C 9.106,-10.855 9.034,-11.024 8.886,-11.155 8.739,-11.286 8.566,-11.353 8.37,-11.353 8.185,-11.353 8.023,-11.283 7.888,-11.147 7.751,-11.011 7.683,-10.85 7.683,-10.664 L 7.683,-5.782 1.408,-5.782 1.408,-11.221 0,-11.205 0,0 Z"
             style="fill:#656263;fill-opacity:1;fill-rule:nonzero;stroke:none"
             id="path865" />
        </g>
        <g
           id="g867"
           transform="translate(244.5049,258.1592)">
          <path
             inkscape:connector-curvature="0"
             d="M 0,0 C 0.12,-0.022 0.239,-0.032 0.359,-0.032 L 0.721,-0.032 4.848,-0.032 C 5.023,-0.032 5.176,-0.096 5.307,-0.222 5.438,-0.347 5.504,-0.498 5.504,-0.672 5.504,-0.857 5.438,-1.014 5.307,-1.139 5.176,-1.264 5.018,-1.327 4.832,-1.327 L 1.425,-1.327 1.425,-5.291 4.652,-5.291 C 4.837,-5.291 4.996,-5.352 5.127,-5.472 5.258,-5.592 5.324,-5.744 5.324,-5.93 5.324,-6.116 5.261,-6.271 5.136,-6.396 5.01,-6.522 4.854,-6.586 4.668,-6.586 L 1.425,-6.586 1.425,-10.533 5.995,-10.533 5.995,-11.828 0.703,-11.828 C 0.475,-11.828 0.297,-11.753 0.172,-11.605 0.046,-11.459 -0.016,-11.275 -0.016,-11.058 L 0,0 Z"
             style="fill:#656263;fill-opacity:1;fill-rule:nonzero;stroke:none"
             id="path869" />
        </g>
        <g
           id="g871"
           transform="translate(260.3604,250.1152)">
          <path
             inkscape:connector-curvature="0"
             d="M 0,0 -2.309,6.438 -4.635,0 0,0 Z M -1.646,7.912 C -1.498,7.76 -1.369,7.542 -1.26,7.258 L 2.851,-3.538 1.442,-3.947 0.41,-1.244 -5.028,-1.244 -5.863,-3.456 C -5.918,-3.598 -6.006,-3.715 -6.126,-3.809 -6.246,-3.901 -6.383,-3.947 -6.535,-3.947 -6.732,-3.947 -6.893,-3.882 -7.018,-3.751 -7.145,-3.619 -7.207,-3.462 -7.207,-3.275 -7.207,-3.155 -7.18,-3.024 -7.125,-2.883 L -3.357,7.258 C -3.27,7.486 -3.149,7.691 -2.998,7.872 -2.844,8.052 -2.631,8.142 -2.358,8.142 -2.031,8.142 -1.793,8.065 -1.646,7.912"
             style="fill:#656263;fill-opacity:1;fill-rule:nonzero;stroke:none"
             id="path873" />
        </g>
        <g
           id="g875"
           transform="translate(265.7822,257.5361)">
          <path
             inkscape:connector-curvature="0"
             d="M 0,0 C 0,0.197 0.068,0.368 0.205,0.516 0.341,0.664 0.514,0.737 0.721,0.737 0.918,0.737 1.081,0.666 1.213,0.524 1.344,0.382 1.408,0.213 1.408,0.017 L 1.408,-9.894 5.013,-9.894 5.029,-11.205 0.721,-11.221 C 0.469,-11.221 0.287,-11.136 0.172,-10.967 0.059,-10.798 0,-10.604 0,-10.386 L 0,0 Z"
             style="fill:#656263;fill-opacity:1;fill-rule:nonzero;stroke:none"
             id="path877" />
        </g>
        <g
           id="g879"
           transform="translate(277.2002,258.127)">
          <path
             inkscape:connector-curvature="0"
             d="M 0,0 C 0.187,0 0.342,-0.063 0.468,-0.189 0.593,-0.314 0.656,-0.47 0.656,-0.656 0.656,-0.842 0.588,-0.995 0.451,-1.114 0.314,-1.235 0.159,-1.295 -0.016,-1.295 L -2.309,-1.295 -2.309,-11.205 C -2.309,-11.402 -2.375,-11.571 -2.505,-11.713 -2.637,-11.855 -2.801,-11.926 -2.998,-11.926 -3.193,-11.926 -3.362,-11.853 -3.504,-11.705 -3.646,-11.558 -3.717,-11.391 -3.717,-11.205 L -3.717,-1.295 -6.322,-1.295 -6.322,0 0,0 Z"
             style="fill:#656263;fill-opacity:1;fill-rule:nonzero;stroke:none"
             id="path881" />
        </g>
        <g
           id="g883"
           transform="translate(280.4932,257.5361)">
          <path
             inkscape:connector-curvature="0"
             d="M 0,0 C 0,0.197 0.071,0.366 0.213,0.508 0.355,0.65 0.524,0.721 0.721,0.721 0.918,0.721 1.08,0.65 1.213,0.508 1.344,0.366 1.408,0.197 1.408,0 L 1.408,-4.538 7.683,-4.538 7.683,0.606 9.107,0.606 9.107,-10.647 C 9.107,-10.855 9.034,-11.024 8.887,-11.155 8.739,-11.286 8.566,-11.353 8.371,-11.353 8.186,-11.353 8.023,-11.283 7.887,-11.147 7.751,-11.011 7.683,-10.85 7.683,-10.664 L 7.683,-5.782 1.408,-5.782 1.408,-11.221 0,-11.205 0,0 Z"
             style="fill:#656263;fill-opacity:1;fill-rule:nonzero;stroke:none"
             id="path885" />
        </g>
        <g
           id="g887"
           transform="translate(299.708,258.2568)">
          <path
             inkscape:connector-curvature="0"
             d="M 0,0 1.703,-10.255 4.473,-0.556 5.898,-0.556 8.666,-10.255 10.238,-0.671 C 10.271,-0.486 10.346,-0.325 10.459,-0.187 10.574,-0.052 10.729,0.017 10.927,0.017 11.145,0.017 11.322,-0.049 11.459,-0.18 11.595,-0.311 11.664,-0.486 11.664,-0.704 11.664,-0.803 11.658,-0.874 11.647,-0.917 L 9.795,-11.204 C 9.742,-11.488 9.621,-11.703 9.436,-11.851 9.25,-11.999 9.016,-12.073 8.73,-12.073 8.48,-12.073 8.259,-12.01 8.067,-11.884 7.877,-11.759 7.748,-11.576 7.684,-11.335 L 5.177,-2.374 2.688,-11.335 C 2.621,-11.576 2.493,-11.759 2.302,-11.884 2.11,-12.01 1.89,-12.073 1.639,-12.073 1.354,-12.073 1.117,-11.999 0.926,-11.851 0.734,-11.703 0.611,-11.488 0.557,-11.204 L -1.393,-0.245 0,0 Z"
             style="fill:#656263;fill-opacity:1;fill-rule:nonzero;stroke:none"
             id="path889" />
        </g>
        <g
           id="g891"
           transform="translate(315.0322,250.5508)">
          <path
             inkscape:connector-curvature="0"
             d="M 0,0 C 0.125,-0.574 0.327,-1.093 0.606,-1.558 0.885,-2.021 1.25,-2.401 1.704,-2.695 2.156,-2.99 2.705,-3.138 3.35,-3.138 4.006,-3.138 4.562,-3.002 5.021,-2.729 5.48,-2.455 5.856,-2.098 6.151,-1.655 6.445,-1.214 6.662,-0.714 6.799,-0.157 6.935,0.4 7.004,0.963 7.004,1.53 7.004,2.121 6.942,2.71 6.823,3.3 6.703,3.89 6.498,4.419 6.209,4.889 5.92,5.358 5.542,5.74 5.078,6.036 4.613,6.331 4.038,6.478 3.35,6.478 2.705,6.478 2.156,6.331 1.704,6.036 1.25,5.74 0.885,5.361 0.606,4.896 0.327,4.433 0.125,3.917 0,3.349 -0.125,2.781 -0.188,2.225 -0.188,1.679 -0.188,1.132 -0.125,0.572 0,0 M -1.416,3.947 C -1.198,4.673 -0.871,5.314 -0.434,5.871 0.003,6.429 0.543,6.876 1.187,7.215 1.832,7.554 2.574,7.723 3.415,7.723 4.257,7.723 4.997,7.551 5.636,7.206 6.274,6.862 6.81,6.41 7.241,5.848 7.672,5.284 7.997,4.64 8.215,3.914 8.434,3.188 8.543,2.442 8.543,1.679 8.543,0.903 8.434,0.155 8.215,-0.565 7.997,-1.287 7.669,-1.932 7.232,-2.499 6.796,-3.066 6.258,-3.52 5.619,-3.858 4.98,-4.197 4.24,-4.367 3.399,-4.367 2.559,-4.367 1.815,-4.194 1.171,-3.851 0.527,-3.506 -0.011,-3.054 -0.442,-2.491 -0.873,-1.929 -1.198,-1.284 -1.416,-0.558 -1.635,0.169 -1.744,0.919 -1.744,1.694 -1.744,2.47 -1.635,3.221 -1.416,3.947"
             style="fill:#656263;fill-opacity:1;fill-rule:nonzero;stroke:none"
             id="path893" />
        </g>
        <g
           id="g895"
           transform="translate(329.9473,252.6719)">
          <path
             inkscape:connector-curvature="0"
             d="M 0,0 C 0.272,0 0.532,0.051 0.778,0.155 1.024,0.259 1.237,0.401 1.417,0.581 1.598,0.762 1.741,0.971 1.851,1.212 1.96,1.452 2.016,1.714 2.016,1.998 2.016,2.304 1.954,2.588 1.835,2.85 1.715,3.111 1.554,3.338 1.353,3.529 1.149,3.721 0.913,3.871 0.639,3.98 0.366,4.089 0.083,4.144 -0.213,4.144 L -2.26,4.144 -2.26,0 0,0 Z M -3.685,5.487 C -3.096,5.433 -2.509,5.413 -1.925,5.43 -1.341,5.445 -0.753,5.455 -0.163,5.455 0.349,5.455 0.828,5.369 1.27,5.2 1.712,5.031 2.098,4.796 2.425,4.496 2.753,4.195 3.009,3.83 3.194,3.398 3.38,2.967 3.474,2.489 3.474,1.965 3.474,1.452 3.376,1.001 3.179,0.614 2.981,0.227 2.72,-0.1 2.392,-0.36 2.063,-0.623 1.683,-0.82 1.245,-0.951 0.81,-1.082 0.349,-1.147 -0.13,-1.147 L -0.36,-1.147 C -0.437,-1.147 -0.519,-1.137 -0.606,-1.114 L 3.85,-5.85 2.785,-6.733 -2.26,-1.131 -2.26,-5.8 C -2.26,-5.985 -2.332,-6.148 -2.473,-6.291 -2.614,-6.433 -2.779,-6.504 -2.965,-6.504 -3.173,-6.504 -3.345,-6.431 -3.481,-6.283 -3.617,-6.136 -3.685,-5.963 -3.685,-5.767 L -3.685,5.487 Z"
             style="fill:#656263;fill-opacity:1;fill-rule:nonzero;stroke:none"
             id="path897" />
        </g>
        <g
           id="g899"
           transform="translate(336.6143,257.5693)">
          <path
             inkscape:connector-curvature="0"
             d="M 0,0 C 0,0.186 0.068,0.349 0.204,0.491 0.34,0.633 0.502,0.704 0.687,0.704 0.885,0.704 1.053,0.639 1.195,0.508 1.338,0.377 1.408,0.207 1.408,0 L 1.408,-4.423 6.814,0.671 7.83,-0.246 2.735,-4.997 8.06,-10.189 C 8.223,-10.354 8.305,-10.538 8.305,-10.747 8.305,-10.932 8.24,-11.085 8.107,-11.205 7.977,-11.324 7.824,-11.386 7.649,-11.386 7.421,-11.386 7.224,-11.303 7.061,-11.14 L 1.426,-5.586 1.426,-11.238 0,-11.238 0,0 Z"
             style="fill:#656263;fill-opacity:1;fill-rule:nonzero;stroke:none"
             id="path901" />
        </g>
        <g
           id="g903"
           transform="translate(347.541,257.4053)">
          <path
             inkscape:connector-curvature="0"
             d="M 0,0 C 0,0.229 0.079,0.409 0.236,0.541 0.396,0.672 0.583,0.737 0.802,0.737 L 5.34,0.737 5.34,-0.558 1.458,-0.558 1.458,-4.555 4.569,-4.555 C 4.743,-4.555 4.9,-4.616 5.036,-4.742 5.173,-4.867 5.241,-5.019 5.241,-5.193 5.241,-5.379 5.177,-5.534 5.044,-5.659 4.914,-5.786 4.755,-5.848 4.569,-5.848 L 1.425,-5.848 1.425,-11.074 0,-11.074 0,0 Z"
             style="fill:#656263;fill-opacity:1;fill-rule:nonzero;stroke:none"
             id="path905" />
        </g>
        <g
           id="g907"
           transform="translate(357.2139,250.5508)">
          <path
             inkscape:connector-curvature="0"
             d="M 0,0 C 0.125,-0.574 0.326,-1.093 0.605,-1.558 0.884,-2.021 1.249,-2.401 1.703,-2.695 2.156,-2.99 2.705,-3.138 3.35,-3.138 4.004,-3.138 4.561,-3.002 5.02,-2.729 5.479,-2.455 5.855,-2.098 6.15,-1.655 6.445,-1.214 6.661,-0.714 6.797,-0.157 6.934,0.4 7.002,0.963 7.002,1.53 7.002,2.121 6.941,2.71 6.822,3.3 6.701,3.89 6.496,4.419 6.208,4.889 5.918,5.358 5.541,5.74 5.077,6.036 4.613,6.331 4.037,6.478 3.35,6.478 2.705,6.478 2.156,6.331 1.703,6.036 1.249,5.74 0.884,5.361 0.605,4.896 0.326,4.433 0.125,3.917 0,3.349 -0.127,2.781 -0.189,2.225 -0.189,1.679 -0.189,1.132 -0.127,0.572 0,0 M -1.418,3.947 C -1.199,4.673 -0.872,5.314 -0.436,5.871 0.002,6.429 0.543,6.876 1.187,7.215 1.832,7.554 2.574,7.723 3.414,7.723 4.256,7.723 4.996,7.551 5.635,7.206 6.273,6.862 6.809,6.41 7.24,5.848 7.67,5.284 7.996,4.64 8.215,3.914 8.434,3.188 8.543,2.442 8.543,1.679 8.543,0.903 8.434,0.155 8.215,-0.565 7.996,-1.287 7.668,-1.932 7.23,-2.499 6.795,-3.066 6.256,-3.52 5.617,-3.858 4.979,-4.197 4.238,-4.367 3.398,-4.367 2.557,-4.367 1.814,-4.194 1.17,-3.851 0.525,-3.506 -0.012,-3.054 -0.443,-2.491 -0.875,-1.929 -1.199,-1.284 -1.418,-0.558 -1.637,0.169 -1.746,0.919 -1.746,1.694 -1.746,2.47 -1.637,3.221 -1.418,3.947"
             style="fill:#656263;fill-opacity:1;fill-rule:nonzero;stroke:none"
             id="path909" />
        </g>
        <g
           id="g911"
           transform="translate(372.1279,252.6719)">
          <path
             inkscape:connector-curvature="0"
             d="M 0,0 C 0.273,0 0.533,0.051 0.779,0.155 1.024,0.259 1.237,0.401 1.418,0.581 1.598,0.762 1.742,0.971 1.852,1.212 1.961,1.452 2.016,1.714 2.016,1.998 2.016,2.304 1.955,2.588 1.836,2.85 1.715,3.111 1.554,3.338 1.352,3.529 1.149,3.721 0.912,3.871 0.639,3.98 0.366,4.089 0.082,4.144 -0.213,4.144 L -2.26,4.144 -2.26,0 0,0 Z M -3.686,5.487 C -3.096,5.433 -2.509,5.413 -1.924,5.43 -1.34,5.445 -0.754,5.455 -0.163,5.455 0.35,5.455 0.828,5.369 1.27,5.2 1.713,5.031 2.098,4.796 2.424,4.496 2.752,4.195 3.01,3.83 3.195,3.398 3.38,2.967 3.473,2.489 3.473,1.965 3.473,1.452 3.375,1.001 3.178,0.614 2.982,0.227 2.72,-0.1 2.392,-0.36 2.064,-0.623 1.682,-0.82 1.245,-0.951 0.809,-1.082 0.35,-1.147 -0.131,-1.147 L -0.36,-1.147 C -0.437,-1.147 -0.518,-1.137 -0.605,-1.114 L 3.85,-5.85 2.785,-6.733 -2.26,-1.131 -2.26,-5.8 C -2.26,-5.985 -2.332,-6.148 -2.473,-6.291 -2.615,-6.433 -2.779,-6.504 -2.965,-6.504 -3.172,-6.504 -3.345,-6.431 -3.48,-6.283 -3.617,-6.136 -3.686,-5.963 -3.686,-5.767 L -3.686,5.487 Z"
             style="fill:#656263;fill-opacity:1;fill-rule:nonzero;stroke:none"
             id="path913" />
        </g>
        <g
           id="g915"
           transform="translate(378.6807,254.4326)">
          <path
             inkscape:connector-curvature="0"
             d="M 0,0 C 0.219,0.748 0.543,1.408 0.975,1.981 1.405,2.555 1.948,3.014 2.604,3.358 3.259,3.702 4.029,3.874 4.914,3.874 5.241,3.874 5.577,3.83 5.921,3.742 6.266,3.655 6.596,3.529 6.912,3.366 7.229,3.201 7.516,3 7.771,2.76 8.028,2.519 8.233,2.246 8.387,1.941 L 7.568,1.203 C 7.35,1.41 7.145,1.6 6.953,1.769 6.762,1.937 6.56,2.077 6.347,2.187 6.134,2.296 5.904,2.381 5.659,2.44 5.414,2.5 5.133,2.53 4.815,2.53 4.171,2.53 3.619,2.389 3.16,2.104 2.702,1.82 2.326,1.452 2.031,0.999 1.735,0.545 1.518,0.038 1.375,-0.525 1.232,-1.087 1.162,-1.647 1.162,-2.203 1.162,-2.782 1.236,-3.356 1.384,-3.924 1.53,-4.491 1.76,-5 2.071,-5.447 2.383,-5.896 2.779,-6.256 3.259,-6.528 3.74,-6.801 4.308,-6.937 4.963,-6.937 5.389,-6.937 5.764,-6.884 6.085,-6.774 6.407,-6.665 6.686,-6.544 6.92,-6.414 7.155,-6.283 7.355,-6.162 7.518,-6.053 7.682,-5.943 7.823,-5.89 7.943,-5.89 8.13,-5.89 8.281,-5.961 8.402,-6.103 8.523,-6.244 8.582,-6.408 8.582,-6.594 8.582,-6.812 8.504,-6.989 8.346,-7.127 8.188,-7.263 8.031,-7.386 7.879,-7.495 7.463,-7.779 6.99,-7.979 6.461,-8.092 5.932,-8.207 5.422,-8.265 4.931,-8.265 4.089,-8.265 3.341,-8.104 2.687,-7.781 2.031,-7.459 1.479,-7.025 1.031,-6.479 0.583,-5.934 0.245,-5.3 0.016,-4.578 -0.213,-3.858 -0.328,-3.104 -0.328,-2.318 -0.328,-1.521 -0.219,-0.748 0,0"
             style="fill:#656263;fill-opacity:1;fill-rule:nonzero;stroke:none"
             id="path917" />
        </g>
        <g
           id="g919"
           transform="translate(389.9346,258.1592)">
          <path
             inkscape:connector-curvature="0"
             d="M 0,0 C 0.121,-0.022 0.24,-0.032 0.36,-0.032 L 0.721,-0.032 4.849,-0.032 C 5.023,-0.032 5.176,-0.096 5.307,-0.222 5.439,-0.347 5.504,-0.498 5.504,-0.672 5.504,-0.857 5.439,-1.014 5.307,-1.139 5.176,-1.264 5.018,-1.327 4.833,-1.327 L 1.425,-1.327 1.425,-5.291 4.652,-5.291 C 4.838,-5.291 4.996,-5.352 5.127,-5.472 5.259,-5.592 5.324,-5.744 5.324,-5.93 5.324,-6.116 5.261,-6.271 5.136,-6.396 5.01,-6.522 4.854,-6.586 4.668,-6.586 L 1.425,-6.586 1.425,-10.533 5.996,-10.533 5.996,-11.828 0.704,-11.828 C 0.475,-11.828 0.297,-11.753 0.172,-11.605 0.046,-11.459 -0.016,-11.275 -0.016,-11.058 L 0,0 Z"
             style="fill:#656263;fill-opacity:1;fill-rule:nonzero;stroke:none"
             id="path921" />
        </g>
        <g
           id="g923"
           transform="translate(408.2979,247.6094)">
          <path
             inkscape:connector-curvature="0"
             d="M 0,0 C 0.677,0 1.25,0.137 1.719,0.409 2.188,0.683 2.571,1.041 2.865,1.482 3.16,1.925 3.373,2.433 3.504,3.007 3.637,3.58 3.701,4.161 3.701,4.75 3.701,5.308 3.625,5.854 3.472,6.389 3.318,6.924 3.092,7.401 2.793,7.822 2.492,8.242 2.111,8.584 1.653,8.846 1.195,9.107 0.654,9.238 0.032,9.238 L -2.229,9.238 -2.229,0 0,0 Z M -3.637,10.55 C -3.615,10.538 -3.512,10.53 -3.326,10.525 -3.141,10.52 -2.912,10.518 -2.638,10.518 L -1.77,10.518 -0.886,10.518 -0.197,10.518 0.146,10.518 C 0.955,10.518 1.672,10.358 2.301,10.042 2.929,9.726 3.461,9.3 3.897,8.765 4.334,8.229 4.664,7.614 4.889,6.921 5.113,6.228 5.225,5.504 5.225,4.75 5.225,3.942 5.121,3.176 4.914,2.448 4.707,1.722 4.39,1.083 3.964,0.532 3.537,-0.02 3.002,-0.459 2.358,-0.787 1.713,-1.113 0.955,-1.278 0.08,-1.278 L -2.851,-1.278 C -3.069,-1.278 -3.255,-1.221 -3.408,-1.105 -3.562,-0.99 -3.637,-0.819 -3.637,-0.59 L -3.637,10.55 Z"
             style="fill:#656263;fill-opacity:1;fill-rule:nonzero;stroke:none"
             id="path925" />
        </g>
        <g
           id="g927"
           transform="translate(416.4707,259.6904)">
          <path
             inkscape:connector-curvature="0"
             d="M 0,0 C 0.109,0.114 0.251,0.172 0.426,0.172 0.579,0.172 0.716,0.117 0.836,0.009 0.955,-0.101 1.017,-0.238 1.017,-0.401 1.017,-0.564 0.958,-0.704 0.844,-0.819 0.729,-0.935 0.591,-0.99 0.426,-0.99 0.272,-0.99 0.136,-0.935 0.017,-0.819 -0.104,-0.704 -0.163,-0.57 -0.163,-0.418 -0.163,-0.254 -0.109,-0.115 0,0 M -0.261,-2.154 C -0.261,-1.957 -0.19,-1.788 -0.048,-1.646 0.093,-1.504 0.263,-1.434 0.458,-1.434 0.655,-1.434 0.819,-1.504 0.95,-1.646 1.081,-1.788 1.147,-1.957 1.147,-2.154 L 1.147,-13.359 -0.261,-13.359 -0.261,-2.154 Z"
             style="fill:#656263;fill-opacity:1;fill-rule:nonzero;stroke:none"
             id="path929" />
        </g>
        <g
           id="g931"
           transform="translate(427.6592,250.1152)">
          <path
             inkscape:connector-curvature="0"
             d="M 0,0 -2.309,6.438 -4.635,0 0,0 Z M -1.646,7.912 C -1.498,7.76 -1.369,7.542 -1.26,7.258 L 2.851,-3.538 1.442,-3.947 0.41,-1.244 -5.028,-1.244 -5.863,-3.456 C -5.918,-3.598 -6.006,-3.715 -6.126,-3.809 -6.246,-3.901 -6.383,-3.947 -6.535,-3.947 -6.732,-3.947 -6.893,-3.882 -7.018,-3.751 -7.145,-3.619 -7.207,-3.462 -7.207,-3.275 -7.207,-3.155 -7.18,-3.024 -7.125,-2.883 L -3.357,7.258 C -3.27,7.486 -3.149,7.691 -2.997,7.872 -2.844,8.052 -2.631,8.142 -2.358,8.142 -2.031,8.142 -1.793,8.065 -1.646,7.912"
             style="fill:#656263;fill-opacity:1;fill-rule:nonzero;stroke:none"
             id="path933" />
        </g>
        <g
           id="g935"
           transform="translate(438.373,251.7539)">
          <path
             inkscape:connector-curvature="0"
             d="M 0,0 C -0.186,0 -0.343,0.06 -0.476,0.18 -0.606,0.301 -0.671,0.452 -0.671,0.639 -0.671,0.824 -0.604,0.983 -0.466,1.114 -0.33,1.244 -0.169,1.311 0.017,1.311 L 2.392,1.311 C 2.862,1.311 3.167,1.196 3.31,0.966 3.45,0.737 3.522,0.404 3.522,-0.033 3.522,-0.764 3.427,-1.466 3.235,-2.138 3.044,-2.809 2.753,-3.399 2.359,-3.907 1.966,-4.414 1.472,-4.822 0.876,-5.127 0.282,-5.433 -0.415,-5.586 -1.212,-5.586 -2.097,-5.586 -2.877,-5.433 -3.554,-5.127 -4.231,-4.822 -4.799,-4.4 -5.257,-3.865 -5.718,-3.331 -6.066,-2.7 -6.306,-1.974 -6.546,-1.247 -6.667,-0.465 -6.667,0.377 -6.667,1.239 -6.544,2.042 -6.298,2.784 -6.053,3.527 -5.694,4.175 -5.225,4.726 -4.757,5.277 -4.175,5.711 -3.481,6.028 -2.787,6.345 -1.987,6.503 -1.081,6.503 -0.415,6.503 0.219,6.358 0.819,6.069 1.419,5.78 1.983,5.444 2.507,5.062 L 1.688,4.014 C 1.414,4.188 1.169,4.352 0.95,4.505 0.731,4.658 0.511,4.791 0.288,4.906 0.063,5.021 -0.178,5.111 -0.434,5.176 -0.69,5.241 -0.999,5.274 -1.359,5.274 -2.015,5.274 -2.583,5.132 -3.063,4.849 -3.544,4.564 -3.939,4.196 -4.251,3.743 -4.562,3.289 -4.791,2.776 -4.938,2.203 -5.087,1.63 -5.159,1.054 -5.159,0.476 -5.159,-0.147 -5.087,-0.748 -4.938,-1.327 -4.791,-1.905 -4.56,-2.417 -4.242,-2.858 -3.926,-3.301 -3.521,-3.652 -3.03,-3.915 -2.539,-4.178 -1.942,-4.309 -1.245,-4.309 -0.644,-4.309 -0.134,-4.184 0.288,-3.932 0.708,-3.681 1.052,-3.35 1.319,-2.94 1.587,-2.53 1.78,-2.069 1.901,-1.556 2.021,-1.044 2.081,-0.524 2.081,0 L 0,0 Z"
             style="fill:#656263;fill-opacity:1;fill-rule:nonzero;stroke:none"
             id="path937" />
        </g>
        <g
           id="g939"
           transform="translate(444.5654,257.5527)">
          <path
             inkscape:connector-curvature="0"
             d="M 0,0 C 0,0.196 0.07,0.365 0.213,0.508 0.354,0.649 0.523,0.721 0.719,0.721 0.971,0.721 1.168,0.616 1.31,0.409 L 7.648,-8.797 7.633,-0.017 C 7.633,0.169 7.701,0.339 7.837,0.491 7.973,0.645 8.135,0.721 8.32,0.721 8.527,0.721 8.699,0.647 8.836,0.499 8.973,0.352 9.041,0.181 9.041,-0.017 L 9.041,-10.681 C 9.041,-10.877 8.973,-11.043 8.836,-11.18 8.699,-11.315 8.533,-11.385 8.337,-11.385 8.086,-11.385 7.889,-11.281 7.746,-11.073 L 1.408,-1.851 1.408,-11.222 0,-11.204 0,0 Z"
             style="fill:#656263;fill-opacity:1;fill-rule:nonzero;stroke:none"
             id="path941" />
        </g>
        <g
           id="g943"
           transform="translate(458.0381,250.5508)">
          <path
             inkscape:connector-curvature="0"
             d="M 0,0 C 0.125,-0.574 0.327,-1.093 0.606,-1.558 0.885,-2.021 1.25,-2.401 1.703,-2.695 2.156,-2.99 2.705,-3.138 3.35,-3.138 4.006,-3.138 4.562,-3.002 5.021,-2.729 5.48,-2.455 5.856,-2.098 6.151,-1.655 6.445,-1.214 6.662,-0.714 6.798,-0.157 6.935,0.4 7.003,0.963 7.003,1.53 7.003,2.121 6.942,2.71 6.822,3.3 6.702,3.89 6.497,4.419 6.209,4.889 5.92,5.358 5.542,5.74 5.078,6.036 4.613,6.331 4.038,6.478 3.35,6.478 2.705,6.478 2.156,6.331 1.703,6.036 1.25,5.74 0.885,5.361 0.606,4.896 0.327,4.433 0.125,3.917 0,3.349 -0.126,2.781 -0.189,2.225 -0.189,1.679 -0.189,1.132 -0.126,0.572 0,0 M -1.417,3.947 C -1.198,4.673 -0.871,5.314 -0.435,5.871 0.002,6.429 0.543,6.876 1.187,7.215 1.832,7.554 2.574,7.723 3.415,7.723 4.256,7.723 4.996,7.551 5.635,7.206 6.274,6.862 6.81,6.41 7.24,5.848 7.672,5.284 7.996,4.64 8.215,3.914 8.434,3.188 8.543,2.442 8.543,1.679 8.543,0.903 8.434,0.155 8.215,-0.565 7.996,-1.287 7.669,-1.932 7.232,-2.499 6.796,-3.066 6.258,-3.52 5.619,-3.858 4.98,-4.197 4.24,-4.367 3.399,-4.367 2.558,-4.367 1.815,-4.194 1.171,-3.851 0.526,-3.506 -0.011,-3.054 -0.442,-2.491 -0.874,-1.929 -1.198,-1.284 -1.417,-0.558 -1.635,0.169 -1.744,0.919 -1.744,1.694 -1.744,2.47 -1.635,3.221 -1.417,3.947"
             style="fill:#656263;fill-opacity:1;fill-rule:nonzero;stroke:none"
             id="path945" />
        </g>
        <g
           id="g947"
           transform="translate(468.9404,248.5186)">
          <path
             inkscape:connector-curvature="0"
             d="M 0,0 C 0.142,-0.061 0.301,-0.123 0.475,-0.188 0.65,-0.254 0.816,-0.319 0.975,-0.385 1.133,-0.45 1.233,-0.489 1.277,-0.5 1.594,-0.63 1.896,-0.751 2.187,-0.86 2.477,-0.97 2.802,-1.023 3.161,-1.023 3.5,-1.023 3.816,-0.961 4.111,-0.835 4.406,-0.71 4.662,-0.535 4.881,-0.312 5.1,-0.087 5.271,0.172 5.396,0.467 5.523,0.763 5.586,1.079 5.586,1.417 5.586,1.875 5.447,2.239 5.168,2.506 4.891,2.774 4.543,2.997 4.127,3.178 3.713,3.357 3.262,3.522 2.777,3.67 2.29,3.816 1.84,4.006 1.425,4.234 1.01,4.464 0.664,4.762 0.385,5.128 0.107,5.492 -0.033,5.987 -0.033,6.61 -0.033,7.09 0.068,7.523 0.27,7.912 0.472,8.3 0.74,8.63 1.073,8.902 1.406,9.177 1.785,9.386 2.211,9.533 2.637,9.682 3.074,9.755 3.521,9.755 3.696,9.755 3.941,9.728 4.26,9.674 4.576,9.618 4.887,9.536 5.193,9.428 5.498,9.318 5.764,9.177 5.987,9.002 6.211,8.826 6.323,8.625 6.323,8.396 6.323,8.22 6.262,8.064 6.143,7.929 6.022,7.792 5.875,7.724 5.7,7.724 5.559,7.724 5.414,7.762 5.267,7.838 5.119,7.915 4.958,7.997 4.783,8.084 4.608,8.172 4.415,8.254 4.201,8.329 3.988,8.406 3.752,8.444 3.488,8.444 3.26,8.444 3.027,8.406 2.793,8.329 2.559,8.254 2.342,8.144 2.146,8.003 1.949,7.86 1.791,7.685 1.67,7.478 1.55,7.271 1.49,7.041 1.49,6.79 1.49,6.43 1.586,6.132 1.777,5.897 1.968,5.663 2.203,5.466 2.481,5.308 2.76,5.149 3.063,5.015 3.391,4.905 3.719,4.797 4.014,4.692 4.275,4.595 4.625,4.464 4.969,4.303 5.307,4.111 5.646,3.92 5.945,3.697 6.209,3.44 6.471,3.184 6.684,2.888 6.848,2.556 7.012,2.223 7.093,1.849 7.093,1.434 7.093,0.92 6.988,0.437 6.781,-0.017 6.574,-0.469 6.297,-0.868 5.945,-1.213 5.597,-1.557 5.193,-1.829 4.733,-2.031 4.275,-2.233 3.795,-2.335 3.293,-2.335 3.052,-2.335 2.758,-2.297 2.408,-2.22 2.059,-2.144 1.697,-2.051 1.326,-1.941 0.955,-1.832 0.595,-1.718 0.246,-1.597 -0.104,-1.478 -0.398,-1.374 -0.639,-1.286 L -0.229,0.106 C -0.219,0.096 -0.143,0.061 0,0"
             style="fill:#656263;fill-opacity:1;fill-rule:nonzero;stroke:none"
             id="path949" />
        </g>
        <g
           id="g951"
           transform="translate(484.501,258.127)">
          <path
             inkscape:connector-curvature="0"
             d="M 0,0 C 0.187,0 0.342,-0.063 0.468,-0.189 0.594,-0.314 0.656,-0.47 0.656,-0.656 0.656,-0.842 0.588,-0.995 0.451,-1.114 0.314,-1.235 0.159,-1.295 -0.016,-1.295 L -2.309,-1.295 -2.309,-11.205 C -2.309,-11.402 -2.375,-11.571 -2.505,-11.713 -2.637,-11.855 -2.801,-11.926 -2.998,-11.926 -3.193,-11.926 -3.362,-11.853 -3.504,-11.705 -3.646,-11.558 -3.717,-11.391 -3.717,-11.205 L -3.717,-1.295 -6.322,-1.295 -6.322,0 0,0 Z"
             style="fill:#656263;fill-opacity:1;fill-rule:nonzero;stroke:none"
             id="path953" />
        </g>
        <g
           id="g955"
           transform="translate(488.0557,259.6904)">
          <path
             inkscape:connector-curvature="0"
             d="M 0,0 C 0.109,0.114 0.252,0.172 0.426,0.172 0.579,0.172 0.715,0.117 0.836,0.009 0.955,-0.101 1.016,-0.238 1.016,-0.401 1.016,-0.564 0.959,-0.704 0.844,-0.819 0.729,-0.935 0.59,-0.99 0.426,-0.99 0.272,-0.99 0.137,-0.935 0.018,-0.819 -0.104,-0.704 -0.163,-0.57 -0.163,-0.418 -0.163,-0.254 -0.109,-0.115 0,0 M -0.262,-2.154 C -0.262,-1.957 -0.19,-1.788 -0.049,-1.646 0.094,-1.504 0.263,-1.434 0.459,-1.434 0.656,-1.434 0.818,-1.504 0.951,-1.646 1.082,-1.788 1.146,-1.957 1.146,-2.154 L 1.146,-13.359 -0.262,-13.359 -0.262,-2.154 Z"
             style="fill:#656263;fill-opacity:1;fill-rule:nonzero;stroke:none"
             id="path957" />
        </g>
        <g
           id="g959"
           transform="translate(492.2178,254.4326)">
          <path
             inkscape:connector-curvature="0"
             d="M 0,0 C 0.219,0.748 0.543,1.408 0.975,1.981 1.405,2.555 1.948,3.014 2.604,3.358 3.259,3.702 4.029,3.874 4.914,3.874 5.241,3.874 5.577,3.83 5.921,3.742 6.266,3.655 6.596,3.529 6.912,3.366 7.229,3.201 7.516,3 7.771,2.76 8.028,2.519 8.233,2.246 8.387,1.941 L 7.568,1.203 C 7.35,1.41 7.145,1.6 6.953,1.769 6.762,1.937 6.56,2.077 6.347,2.187 6.134,2.296 5.904,2.381 5.659,2.44 5.414,2.5 5.133,2.53 4.815,2.53 4.171,2.53 3.619,2.389 3.16,2.104 2.702,1.82 2.326,1.452 2.031,0.999 1.735,0.545 1.518,0.038 1.375,-0.525 1.232,-1.087 1.162,-1.647 1.162,-2.203 1.162,-2.782 1.236,-3.356 1.384,-3.924 1.53,-4.491 1.76,-5 2.071,-5.447 2.383,-5.896 2.779,-6.256 3.259,-6.528 3.74,-6.801 4.308,-6.937 4.963,-6.937 5.389,-6.937 5.764,-6.884 6.085,-6.774 6.407,-6.665 6.686,-6.544 6.92,-6.414 7.155,-6.283 7.355,-6.162 7.518,-6.053 7.682,-5.943 7.823,-5.89 7.943,-5.89 8.13,-5.89 8.281,-5.961 8.402,-6.103 8.523,-6.244 8.582,-6.408 8.582,-6.594 8.582,-6.812 8.504,-6.989 8.346,-7.127 8.188,-7.263 8.031,-7.386 7.879,-7.495 7.463,-7.779 6.99,-7.979 6.461,-8.092 5.932,-8.207 5.422,-8.265 4.931,-8.265 4.089,-8.265 3.341,-8.104 2.687,-7.781 2.031,-7.459 1.479,-7.025 1.031,-6.479 0.583,-5.934 0.245,-5.3 0.016,-4.578 -0.213,-3.858 -0.328,-3.104 -0.328,-2.318 -0.328,-1.521 -0.219,-0.748 0,0"
             style="fill:#656263;fill-opacity:1;fill-rule:nonzero;stroke:none"
             id="path961" />
        </g>
        <g
           id="g963"
           transform="translate(509.7285,257.4053)">
          <path
             inkscape:connector-curvature="0"
             d="M 0,0 C 0,0.229 0.079,0.409 0.237,0.541 0.396,0.672 0.583,0.737 0.802,0.737 L 5.34,0.737 5.34,-0.558 1.458,-0.558 1.458,-4.555 4.569,-4.555 C 4.744,-4.555 4.9,-4.616 5.037,-4.742 5.173,-4.867 5.241,-5.019 5.241,-5.193 5.241,-5.379 5.177,-5.534 5.045,-5.659 4.914,-5.786 4.755,-5.848 4.569,-5.848 L 1.425,-5.848 1.425,-11.074 0,-11.074 0,0 Z"
             style="fill:#656263;fill-opacity:1;fill-rule:nonzero;stroke:none"
             id="path965" />
        </g>
        <g
           id="g967"
           transform="translate(521.7842,252.6719)">
          <path
             inkscape:connector-curvature="0"
             d="M 0,0 C 0.272,0 0.533,0.051 0.778,0.155 1.023,0.259 1.236,0.401 1.417,0.581 1.598,0.762 1.741,0.971 1.851,1.212 1.96,1.452 2.016,1.714 2.016,1.998 2.016,2.304 1.954,2.588 1.835,2.85 1.715,3.111 1.553,3.338 1.352,3.529 1.148,3.721 0.912,3.871 0.639,3.98 0.365,4.089 0.082,4.144 -0.213,4.144 L -2.26,4.144 -2.26,0 0,0 Z M -3.686,5.487 C -3.096,5.433 -2.51,5.413 -1.924,5.43 -1.341,5.445 -0.754,5.455 -0.164,5.455 0.35,5.455 0.828,5.369 1.27,5.2 1.712,5.031 2.098,4.796 2.424,4.496 2.752,4.195 3.009,3.83 3.195,3.398 3.379,2.967 3.473,2.489 3.473,1.965 3.473,1.452 3.375,1.001 3.178,0.614 2.982,0.227 2.719,-0.1 2.392,-0.36 2.063,-0.623 1.682,-0.82 1.244,-0.951 0.809,-1.082 0.35,-1.147 -0.131,-1.147 L -0.361,-1.147 C -0.437,-1.147 -0.519,-1.137 -0.606,-1.114 L 3.85,-5.85 2.785,-6.733 -2.26,-1.131 -2.26,-5.8 C -2.26,-5.985 -2.332,-6.148 -2.473,-6.291 -2.615,-6.433 -2.779,-6.504 -2.965,-6.504 -3.173,-6.504 -3.346,-6.431 -3.481,-6.283 -3.617,-6.136 -3.686,-5.963 -3.686,-5.767 L -3.686,5.487 Z"
             style="fill:#656263;fill-opacity:1;fill-rule:nonzero;stroke:none"
             id="path969" />
        </g>
        <g
           id="g971"
           transform="translate(535.4287,250.1152)">
          <path
             inkscape:connector-curvature="0"
             d="M 0,0 -2.31,6.438 -4.636,0 0,0 Z M -1.646,7.912 C -1.498,7.76 -1.369,7.542 -1.261,7.258 L 2.85,-3.538 1.441,-3.947 0.41,-1.244 -5.029,-1.244 -5.863,-3.456 C -5.919,-3.598 -6.006,-3.715 -6.126,-3.809 -6.246,-3.901 -6.383,-3.947 -6.535,-3.947 -6.732,-3.947 -6.894,-3.882 -7.019,-3.751 -7.145,-3.619 -7.207,-3.462 -7.207,-3.275 -7.207,-3.155 -7.181,-3.024 -7.125,-2.883 L -3.358,7.258 C -3.271,7.486 -3.15,7.691 -2.998,7.872 -2.845,8.052 -2.631,8.142 -2.359,8.142 -2.031,8.142 -1.793,8.065 -1.646,7.912"
             style="fill:#656263;fill-opacity:1;fill-rule:nonzero;stroke:none"
             id="path973" />
        </g>
        <g
           id="g975"
           transform="translate(544.3906,258.0273)">
          <path
             inkscape:connector-curvature="0"
             d="M 0,0 C 0.175,-0.152 0.3,-0.354 0.376,-0.606 L 2.915,-9.369 5.471,-0.606 C 5.548,-0.354 5.67,-0.152 5.839,0 6.009,0.153 6.229,0.229 6.503,0.229 6.776,0.229 7.017,0.151 7.224,-0.008 7.431,-0.167 7.558,-0.382 7.601,-0.654 L 9.402,-11.531 7.994,-11.777 6.503,-1.572 3.62,-11.303 2.212,-11.303 -0.655,-1.572 -2.081,-11.171 C -2.113,-11.368 -2.193,-11.527 -2.318,-11.646 -2.443,-11.767 -2.61,-11.826 -2.817,-11.826 -3.015,-11.826 -3.179,-11.767 -3.31,-11.646 -3.44,-11.527 -3.506,-11.368 -3.506,-11.171 -3.506,-11.063 -3.501,-10.98 -3.49,-10.926 L -1.771,-0.654 C -1.715,-0.382 -1.587,-0.167 -1.385,-0.008 -1.183,0.151 -0.945,0.229 -0.673,0.229 -0.399,0.229 -0.176,0.153 0,0"
             style="fill:#656263;fill-opacity:1;fill-rule:nonzero;stroke:none"
             id="path977" />
        </g>
        <g
           id="g979"
           transform="translate(556.4307,258.1592)">
          <path
             inkscape:connector-curvature="0"
             d="M 0,0 C 0.12,-0.022 0.239,-0.032 0.359,-0.032 L 0.721,-0.032 4.848,-0.032 C 5.023,-0.032 5.176,-0.096 5.307,-0.222 5.438,-0.347 5.504,-0.498 5.504,-0.672 5.504,-0.857 5.438,-1.014 5.307,-1.139 5.176,-1.264 5.018,-1.327 4.832,-1.327 L 1.425,-1.327 1.425,-5.291 4.652,-5.291 C 4.837,-5.291 4.996,-5.352 5.127,-5.472 5.258,-5.592 5.324,-5.744 5.324,-5.93 5.324,-6.116 5.261,-6.271 5.135,-6.396 5.01,-6.522 4.854,-6.586 4.668,-6.586 L 1.425,-6.586 1.425,-10.533 5.995,-10.533 5.995,-11.828 0.703,-11.828 C 0.475,-11.828 0.297,-11.753 0.172,-11.605 0.046,-11.459 -0.016,-11.275 -0.016,-11.058 L 0,0 Z"
             style="fill:#656263;fill-opacity:1;fill-rule:nonzero;stroke:none"
             id="path981" />
        </g>
        <g
           id="g983"
           transform="translate(565.9473,258.2568)">
          <path
             inkscape:connector-curvature="0"
             d="M 0,0 1.704,-10.255 4.473,-0.556 5.897,-0.556 8.665,-10.255 10.238,-0.671 C 10.271,-0.486 10.345,-0.325 10.459,-0.187 10.573,-0.052 10.729,0.017 10.927,0.017 11.146,0.017 11.321,-0.049 11.458,-0.18 11.595,-0.311 11.663,-0.486 11.663,-0.704 11.663,-0.803 11.657,-0.874 11.647,-0.917 L 9.796,-11.204 C 9.741,-11.488 9.621,-11.703 9.437,-11.851 9.251,-11.999 9.015,-12.073 8.731,-12.073 8.479,-12.073 8.259,-12.01 8.067,-11.884 7.877,-11.759 7.749,-11.576 7.683,-11.335 L 5.177,-2.374 2.687,-11.335 C 2.622,-11.576 2.493,-11.759 2.302,-11.884 2.11,-12.01 1.89,-12.073 1.638,-12.073 1.354,-12.073 1.116,-11.999 0.927,-11.851 0.734,-11.703 0.612,-11.488 0.557,-11.204 L -1.393,-0.245 0,0 Z"
             style="fill:#656263;fill-opacity:1;fill-rule:nonzero;stroke:none"
             id="path985" />
        </g>
        <g
           id="g987"
           transform="translate(581.2725,250.5508)">
          <path
             inkscape:connector-curvature="0"
             d="M 0,0 C 0.125,-0.574 0.326,-1.093 0.605,-1.558 0.884,-2.021 1.249,-2.401 1.703,-2.695 2.156,-2.99 2.705,-3.138 3.349,-3.138 4.004,-3.138 4.561,-3.002 5.02,-2.729 5.479,-2.455 5.855,-2.098 6.15,-1.655 6.444,-1.214 6.66,-0.714 6.797,-0.157 6.934,0.4 7.002,0.963 7.002,1.53 7.002,2.121 6.941,2.71 6.822,3.3 6.701,3.89 6.496,4.419 6.208,4.889 5.918,5.358 5.541,5.74 5.076,6.036 4.613,6.331 4.037,6.478 3.349,6.478 2.705,6.478 2.156,6.331 1.703,6.036 1.249,5.74 0.884,5.361 0.605,4.896 0.326,4.433 0.125,3.917 0,3.349 -0.127,2.781 -0.189,2.225 -0.189,1.679 -0.189,1.132 -0.127,0.572 0,0 M -1.418,3.947 C -1.199,4.673 -0.873,5.314 -0.436,5.871 0.002,6.429 0.543,6.876 1.187,7.215 1.831,7.554 2.574,7.723 3.414,7.723 4.256,7.723 4.996,7.551 5.635,7.206 6.273,6.862 6.809,6.41 7.24,5.848 7.67,5.284 7.996,4.64 8.215,3.914 8.434,3.188 8.542,2.442 8.542,1.679 8.542,0.903 8.434,0.155 8.215,-0.565 7.996,-1.287 7.668,-1.932 7.23,-2.499 6.795,-3.066 6.256,-3.52 5.617,-3.858 4.979,-4.197 4.238,-4.367 3.398,-4.367 2.557,-4.367 1.814,-4.194 1.17,-3.851 0.525,-3.506 -0.012,-3.054 -0.443,-2.491 -0.875,-1.929 -1.199,-1.284 -1.418,-0.558 -1.637,0.169 -1.746,0.919 -1.746,1.694 -1.746,2.47 -1.637,3.221 -1.418,3.947"
             style="fill:#656263;fill-opacity:1;fill-rule:nonzero;stroke:none"
             id="path989" />
        </g>
        <g
           id="g991"
           transform="translate(596.1865,252.6719)">
          <path
             inkscape:connector-curvature="0"
             d="M 0,0 C 0.272,0 0.533,0.051 0.778,0.155 1.023,0.259 1.236,0.401 1.417,0.581 1.598,0.762 1.742,0.971 1.852,1.212 1.96,1.452 2.016,1.714 2.016,1.998 2.016,2.304 1.955,2.588 1.835,2.85 1.715,3.111 1.554,3.338 1.352,3.529 1.148,3.721 0.912,3.871 0.639,3.98 0.366,4.089 0.082,4.144 -0.213,4.144 L -2.26,4.144 -2.26,0 0,0 Z M -3.686,5.487 C -3.096,5.433 -2.509,5.413 -1.924,5.43 -1.341,5.445 -0.754,5.455 -0.164,5.455 0.35,5.455 0.828,5.369 1.27,5.2 1.713,5.031 2.098,4.796 2.424,4.496 2.752,4.195 3.009,3.83 3.195,3.398 3.38,2.967 3.473,2.489 3.473,1.965 3.473,1.452 3.375,1.001 3.178,0.614 2.982,0.227 2.719,-0.1 2.392,-0.36 2.064,-0.623 1.682,-0.82 1.244,-0.951 0.809,-1.082 0.35,-1.147 -0.131,-1.147 L -0.36,-1.147 C -0.437,-1.147 -0.518,-1.137 -0.605,-1.114 L 3.85,-5.85 2.785,-6.733 -2.26,-1.131 -2.26,-5.8 C -2.26,-5.985 -2.332,-6.148 -2.473,-6.291 -2.615,-6.433 -2.779,-6.504 -2.965,-6.504 -3.172,-6.504 -3.345,-6.431 -3.48,-6.283 -3.617,-6.136 -3.686,-5.963 -3.686,-5.767 L -3.686,5.487 Z"
             style="fill:#656263;fill-opacity:1;fill-rule:nonzero;stroke:none"
             id="path993" />
        </g>
        <g
           id="g995"
           transform="translate(602.8535,257.5693)">
          <path
             inkscape:connector-curvature="0"
             d="M 0,0 C 0,0.186 0.067,0.349 0.204,0.491 0.341,0.633 0.501,0.704 0.687,0.704 0.884,0.704 1.054,0.639 1.195,0.508 1.337,0.377 1.408,0.207 1.408,0 L 1.408,-4.423 6.814,0.671 7.829,-0.246 2.735,-4.997 8.06,-10.189 C 8.223,-10.354 8.306,-10.538 8.306,-10.747 8.306,-10.932 8.239,-11.085 8.108,-11.205 7.978,-11.324 7.823,-11.386 7.649,-11.386 7.421,-11.386 7.224,-11.303 7.06,-11.14 L 1.425,-5.586 1.425,-11.238 0,-11.238 0,0 Z"
             style="fill:#656263;fill-opacity:1;fill-rule:nonzero;stroke:none"
             id="path997" />
        </g>
        <g
           id="g999"
           transform="translate(521.6963,292.79)">
          <path
             inkscape:connector-curvature="0"
             d="M 0,0 C 2.428,0 4.734,0.363 6.922,1.093 9.107,1.82 11.014,2.896 12.646,4.319 14.275,5.739 15.576,7.458 16.551,9.471 17.52,11.483 18.008,13.772 18.008,16.34 18.008,19.114 17.52,21.561 16.551,23.679 15.576,25.794 14.225,27.583 12.491,29.039 10.754,30.496 8.744,31.588 6.453,32.317 4.164,33.047 1.699,33.411 -0.937,33.411 L -5.723,33.411 -5.723,0 0,0 Z M -15.51,54.175 C -10.791,54.208 -6.037,54.227 -1.248,54.227 3.746,54.227 8.518,53.708 13.064,52.666 17.607,51.625 21.734,49.976 25.447,47.722 29.16,45.465 32.354,42.534 35.024,38.927 37.695,35.318 39.656,30.913 40.906,25.709 41.598,22.932 41.945,19.984 41.945,16.861 41.945,11.239 40.92,6.104 38.876,1.456 36.829,-3.194 34.018,-7.148 30.445,-10.41 26.871,-13.672 22.672,-16.205 17.85,-18.007 13.027,-19.813 7.875,-20.713 2.394,-20.713 L -17.8,-20.713 C -19.463,-20.713 -21.024,-20.385 -22.48,-19.726 -23.941,-19.066 -25.206,-18.199 -26.281,-17.122 -27.356,-16.048 -28.207,-14.765 -28.831,-13.271 -29.455,-11.779 -29.769,-10.2 -29.769,-8.536 L -29.769,54.332 C -24.979,54.192 -20.228,54.14 -15.51,54.175"
             style="fill:#50ade5;fill-opacity:1;fill-rule:nonzero;stroke:none"
             id="path1001" />
        </g>
        <g
           id="g1003"
           transform="translate(521.6963,292.79)">
          <path
             inkscape:connector-curvature="0"
             d="M 0,0 C 2.428,0 4.734,0.363 6.922,1.093 9.107,1.82 11.014,2.896 12.646,4.319 14.275,5.739 15.576,7.458 16.551,9.471 17.52,11.483 18.008,13.772 18.008,16.34 18.008,19.114 17.52,21.561 16.551,23.679 15.576,25.794 14.225,27.583 12.491,29.039 10.754,30.496 8.744,31.588 6.453,32.317 4.164,33.047 1.699,33.411 -0.937,33.411 L -5.723,33.411 -5.723,0 0,0 Z M -15.51,54.175 C -10.791,54.208 -6.037,54.227 -1.248,54.227 3.746,54.227 8.518,53.708 13.064,52.666 17.607,51.625 21.734,49.976 25.447,47.722 29.16,45.465 32.354,42.534 35.024,38.927 37.695,35.318 39.656,30.913 40.906,25.709 41.598,22.932 41.945,19.984 41.945,16.861 41.945,11.239 40.92,6.104 38.876,1.456 36.829,-3.194 34.018,-7.148 30.445,-10.41 26.871,-13.672 22.672,-16.205 17.85,-18.007 13.027,-19.813 7.875,-20.713 2.394,-20.713 L -17.8,-20.713 C -19.463,-20.713 -21.024,-20.385 -22.48,-19.726 -23.941,-19.066 -25.206,-18.199 -26.281,-17.122 -27.356,-16.048 -28.207,-14.765 -28.831,-13.271 -29.455,-11.779 -29.769,-10.2 -29.769,-8.536 L -29.769,54.332 C -24.979,54.192 -20.228,54.14 -15.51,54.175 Z"
             style="fill:none;stroke:#ffffff;stroke-width:5.76800013;stroke-linecap:butt;stroke-linejoin:miter;stroke-miterlimit:10;stroke-opacity:1;stroke-dasharray:none"
             id="path1005" />
        </g>
        <g
           id="g1007"
           transform="translate(564.6562,272.0771)">
          <path
             inkscape:connector-curvature="0"
             d="M 0,0 0,62.763 C 0,64.497 0.313,66.093 0.937,67.549 1.562,69.008 2.411,70.292 3.487,71.401 4.562,72.511 5.845,73.378 7.337,74.004 8.829,74.627 10.443,74.939 12.177,74.939 L 48.919,74.939 49.023,53.915 24.149,53.915 24.149,46.524 37.989,46.524 C 39.448,46.524 40.802,46.246 42.05,45.693 43.298,45.136 44.394,44.373 45.327,43.404 46.266,42.431 46.993,41.321 47.513,40.071 48.036,38.823 48.296,37.47 48.296,36.012 48.296,34.624 48.015,33.307 47.462,32.057 46.905,30.808 46.144,29.715 45.173,28.779 44.2,27.841 43.091,27.114 41.841,26.593 40.593,26.073 39.274,25.812 37.888,25.812 L 24.149,25.812 24.149,0 0,0 Z"
             style="fill:#50ade5;fill-opacity:1;fill-rule:nonzero;stroke:none"
             id="path1009" />
        </g>
        <g
           id="g1011"
           transform="translate(564.6562,272.0771)">
          <path
             inkscape:connector-curvature="0"
             d="M 0,0 0,62.763 C 0,64.497 0.313,66.093 0.937,67.549 1.562,69.008 2.411,70.292 3.487,71.401 4.562,72.511 5.845,73.378 7.337,74.004 8.829,74.627 10.443,74.939 12.177,74.939 L 48.919,74.939 49.023,53.915 24.149,53.915 24.149,46.524 37.989,46.524 C 39.448,46.524 40.802,46.246 42.05,45.693 43.298,45.136 44.394,44.373 45.327,43.404 46.266,42.431 46.993,41.321 47.513,40.071 48.036,38.823 48.296,37.47 48.296,36.012 48.296,34.624 48.015,33.307 47.462,32.057 46.905,30.808 46.144,29.715 45.173,28.779 44.2,27.841 43.091,27.114 41.841,26.593 40.593,26.073 39.274,25.812 37.888,25.812 L 24.149,25.812 24.149,0 0,0 Z"
             style="fill:none;stroke:#ffffff;stroke-width:5.76800013;stroke-linecap:butt;stroke-linejoin:miter;stroke-miterlimit:10;stroke-opacity:1;stroke-dasharray:none"
             id="path1013" />
        </g>
        <g
           id="g1015"
           transform="translate(383.3838,340.46)">
          <path
             inkscape:connector-curvature="0"
             d="M 0,0 C -0.623,1.457 -1.474,2.74 -2.55,3.851 -3.625,4.96 -4.89,5.829 -6.35,6.453 -7.807,7.079 -9.367,7.391 -11.031,7.391 -14.363,7.391 -17.242,6.175 -19.671,3.748 -22.027,1.387 -23.212,-1.458 -23.212,-4.788 L -23.212,-19.806 -45.737,-19.806 -45.737,-4.788 C -45.737,-1.458 -46.92,1.387 -49.278,3.748 -51.706,6.175 -54.586,7.391 -57.918,7.391 -59.58,7.391 -61.143,7.079 -62.599,6.453 -64.059,5.829 -65.324,4.96 -66.4,3.851 -67.475,2.74 -68.325,1.457 -68.949,0 -69.573,-1.458 -69.887,-3.019 -69.887,-4.683 L -69.887,-19.806 -69.887,-40.252 -69.887,-55.375 C -69.887,-57.039 -69.573,-58.601 -68.949,-60.057 -68.325,-61.514 -67.475,-62.798 -66.4,-63.908 -65.324,-65.019 -64.059,-65.886 -62.599,-66.51 -61.143,-67.135 -59.58,-67.447 -57.918,-67.447 -54.586,-67.447 -51.706,-66.231 -49.278,-63.805 -46.92,-61.444 -45.737,-58.601 -45.737,-55.27 L -45.737,-40.252 -23.212,-40.252 -23.212,-55.27 C -23.212,-58.601 -22.027,-61.444 -19.671,-63.805 -17.242,-66.231 -14.363,-67.447 -11.031,-67.447 -9.367,-67.447 -7.807,-67.135 -6.35,-66.51 -4.89,-65.886 -3.625,-65.019 -2.55,-63.908 -1.474,-62.798 -0.623,-61.514 0,-60.057 0.624,-58.601 0.937,-57.039 0.937,-55.375 L 0.937,-40.252 0.937,-19.806 0.937,-4.683 C 0.937,-3.019 0.624,-1.458 0,0"
             style="fill:#50ade5;fill-opacity:1;fill-rule:nonzero;stroke:none"
             id="path1017" />
        </g>
        <g
           id="g1019"
           transform="translate(383.3838,340.46)">
          <path
             inkscape:connector-curvature="0"
             d="M 0,0 C -0.623,1.457 -1.474,2.74 -2.55,3.851 -3.625,4.96 -4.89,5.829 -6.35,6.453 -7.807,7.079 -9.367,7.391 -11.031,7.391 -14.363,7.391 -17.242,6.175 -19.671,3.748 -22.027,1.387 -23.212,-1.458 -23.212,-4.788 L -23.212,-19.806 -45.737,-19.806 -45.737,-4.788 C -45.737,-1.458 -46.92,1.387 -49.278,3.748 -51.706,6.175 -54.586,7.391 -57.918,7.391 -59.58,7.391 -61.143,7.079 -62.599,6.453 -64.059,5.829 -65.324,4.96 -66.4,3.851 -67.475,2.74 -68.325,1.457 -68.949,0 -69.573,-1.458 -69.887,-3.019 -69.887,-4.683 L -69.887,-19.806 -69.887,-40.252 -69.887,-55.375 C -69.887,-57.039 -69.573,-58.601 -68.949,-60.057 -68.325,-61.514 -67.475,-62.798 -66.4,-63.908 -65.324,-65.019 -64.059,-65.886 -62.599,-66.51 -61.143,-67.135 -59.58,-67.447 -57.918,-67.447 -54.586,-67.447 -51.706,-66.231 -49.278,-63.805 -46.92,-61.444 -45.737,-58.601 -45.737,-55.27 L -45.737,-40.252 -23.212,-40.252 -23.212,-55.27 C -23.212,-58.601 -22.027,-61.444 -19.671,-63.805 -17.242,-66.231 -14.363,-67.447 -11.031,-67.447 -9.367,-67.447 -7.807,-67.135 -6.35,-66.51 -4.89,-65.886 -3.625,-65.019 -2.55,-63.908 -1.474,-62.798 -0.623,-61.514 0,-60.057 0.624,-58.601 0.937,-57.039 0.937,-55.375 L 0.937,-40.252 0.937,-19.806 0.937,-4.683 C 0.937,-3.019 0.624,-1.458 0,0 Z"
             style="fill:none;stroke:#ffffff;stroke-width:5.76800013;stroke-linecap:butt;stroke-linejoin:miter;stroke-miterlimit:10;stroke-opacity:1;stroke-dasharray:none"
             id="path1021" />
        </g>
        <g
           id="g1023"
           transform="translate(488.7744,340.3564)">
          <path
             inkscape:connector-curvature="0"
             d="M 0,0 C -0.66,1.457 -1.562,2.74 -2.707,3.852 -3.851,4.959 -5.152,5.845 -6.609,6.506 -8.066,7.163 -9.594,7.494 -11.189,7.494 -14.312,7.494 -16.861,6.506 -18.84,4.528 -20.818,2.549 -22.224,0.138 -23.057,-2.706 L -31.902,-32.995 -40.533,-2.542 C -41.48,2.566 -45.938,6.44 -51.322,6.44 -56.675,6.44 -61.123,2.606 -62.096,-2.464 L -70.75,-32.995 -79.596,-2.706 C -80.43,0.138 -81.836,2.549 -83.812,4.528 -85.791,6.506 -88.34,7.494 -91.463,7.494 -93.059,7.494 -94.586,7.163 -96.043,6.506 -97.5,5.845 -98.802,4.959 -99.945,3.852 -101.092,2.74 -101.992,1.457 -102.653,0 -103.311,-1.458 -103.641,-2.984 -103.641,-4.58 -103.641,-5.274 -103.537,-5.968 -103.328,-6.661 L -89.797,-55.791 C -88.688,-59.814 -86.863,-63.041 -84.334,-65.469 -81.799,-67.898 -78.35,-69.113 -73.979,-69.113 -70.438,-69.113 -67.297,-68.037 -64.555,-65.886 -61.814,-63.735 -59.926,-60.994 -58.883,-57.664 L -51.327,-33.957 -43.77,-57.664 C -42.727,-60.994 -40.839,-63.735 -38.097,-65.886 -35.355,-68.037 -32.215,-69.113 -28.676,-69.113 -24.305,-69.113 -20.854,-67.898 -18.318,-65.469 -15.789,-63.041 -13.965,-59.814 -12.855,-55.791 L 0.675,-6.661 C 0.885,-5.968 0.988,-5.274 0.988,-4.58 0.988,-2.984 0.658,-1.458 0,0"
             style="fill:#50ade5;fill-opacity:1;fill-rule:nonzero;stroke:none"
             id="path1025" />
        </g>
        <g
           id="g1027"
           transform="translate(488.7744,340.3564)">
          <path
             inkscape:connector-curvature="0"
             d="M 0,0 C -0.66,1.457 -1.562,2.74 -2.707,3.852 -3.851,4.959 -5.152,5.845 -6.609,6.506 -8.066,7.163 -9.594,7.494 -11.189,7.494 -14.312,7.494 -16.861,6.506 -18.84,4.528 -20.818,2.549 -22.224,0.138 -23.057,-2.706 L -31.902,-32.995 -40.533,-2.542 C -41.48,2.566 -45.938,6.44 -51.322,6.44 -56.675,6.44 -61.123,2.606 -62.096,-2.464 L -70.75,-32.995 -79.596,-2.706 C -80.43,0.138 -81.836,2.549 -83.812,4.528 -85.791,6.506 -88.34,7.494 -91.463,7.494 -93.059,7.494 -94.586,7.163 -96.043,6.506 -97.5,5.845 -98.802,4.959 -99.945,3.852 -101.092,2.74 -101.992,1.457 -102.653,0 -103.311,-1.458 -103.641,-2.984 -103.641,-4.58 -103.641,-5.274 -103.537,-5.968 -103.328,-6.661 L -89.797,-55.791 C -88.688,-59.814 -86.863,-63.041 -84.334,-65.469 -81.799,-67.898 -78.35,-69.113 -73.979,-69.113 -70.438,-69.113 -67.297,-68.037 -64.555,-65.886 -61.814,-63.735 -59.926,-60.994 -58.883,-57.664 L -51.327,-33.957 -43.77,-57.664 C -42.727,-60.994 -40.839,-63.735 -38.097,-65.886 -35.355,-68.037 -32.215,-69.113 -28.676,-69.113 -24.305,-69.113 -20.854,-67.898 -18.318,-65.469 -15.789,-63.041 -13.965,-59.814 -12.855,-55.791 L 0.675,-6.661 C 0.885,-5.968 0.988,-5.274 0.988,-4.58 0.988,-2.984 0.658,-1.458 0,0 Z"
             style="fill:none;stroke:#ffffff;stroke-width:5.76800013;stroke-linecap:butt;stroke-linejoin:miter;stroke-miterlimit:10;stroke-opacity:1;stroke-dasharray:none"
             id="path1029" />
        </g>
        <g
           id="g1031"
           transform="translate(280.8506,280.5771)">
          <path
             inkscape:connector-curvature="0"
             d="M 0,0 -27.279,0 C -31.043,0 -33.104,4.119 -31.27,7.067 -28.897,10.885 -27.359,11.741 -27.359,11.741 L -31.775,11.741 C -34.398,11.741 -36.492,14.343 -36.492,16.281 -36.492,18.219 -35.432,21.66 -30.644,21.66 L -6.496,21.66 C -5.357,25.08 -7.409,30.781 -10.488,32.832 -10.602,32.718 -14.478,28.842 -17.1,26.22 -19.723,23.598 -23.712,23.256 -26.219,25.764 -28.727,28.273 -28.498,32.148 -25.422,35.341 -22.343,38.532 -6.434,54.302 -6.434,54.302 -3.127,57.496 0.635,57.381 3.029,54.761 5.422,52.138 5.422,48.945 2.346,45.754 -0.732,42.561 -4.217,39.216 -4.217,39.216 0.113,37.734 8.945,25.254 0.459,12.678 5.814,9.005 5.84,6.125 5.84,4.405 5.84,2.745 4.676,0 0,0 M -12.723,68.765 C -34.768,68.765 -52.64,50.893 -52.64,28.847 -52.64,6.801 -34.768,-11.07 -12.723,-11.07 9.324,-11.07 27.195,6.801 27.195,28.847 27.195,50.893 9.324,68.765 -12.723,68.765"
             style="fill:#918f90;fill-opacity:1;fill-rule:nonzero;stroke:none"
             id="path1033" />
        </g>
      </g>
    </g>
  </g>
</svg>
