<?xml version="1.0" encoding="UTF-8" standalone="no"?>
<!-- Created with Inkscape (http://www.inkscape.org/) -->

<svg
   xmlns:dc="http://purl.org/dc/elements/1.1/"
   xmlns:cc="http://creativecommons.org/ns#"
   xmlns:rdf="http://www.w3.org/1999/02/22-rdf-syntax-ns#"
   xmlns:svg="http://www.w3.org/2000/svg"
   xmlns="http://www.w3.org/2000/svg"
   xmlns:sodipodi="http://sodipodi.sourceforge.net/DTD/sodipodi-0.dtd"
   xmlns:inkscape="http://www.inkscape.org/namespaces/inkscape"
   width="98.080948"
   height="30.38925"
   id="svg53942"
   version="1.1"
   inkscape:version="0.48+devel r11876"
   sodipodi:docname="who.svg">
  <defs
     id="defs53944">
    <clipPath
       clipPathUnits="userSpaceOnUse"
       id="clipPath52226">
      <path
         inkscape:connector-curvature="0"
         d="M 0,841.89 1190.55,841.89 1190.55,0 0,0 0,841.89 Z"
         id="path52228" />
    </clipPath>
  </defs>
  <sodipodi:namedview
     id="base"
     pagecolor="#ffffff"
     bordercolor="#666666"
     borderopacity="1.0"
     inkscape:pageopacity="0.0"
     inkscape:pageshadow="2"
     inkscape:zoom="5.6"
     inkscape:cx="51.549864"
     inkscape:cy="-33.699988"
     inkscape:document-units="px"
     inkscape:current-layer="g52224"
     showgrid="false"
     fit-margin-top="0"
     fit-margin-left="0"
     fit-margin-right="0"
     fit-margin-bottom="0"
     inkscape:window-width="1198"
     inkscape:window-height="1899"
     inkscape:window-x="0"
     inkscape:window-y="19"
     inkscape:window-maximized="0" />
  <metadata
     id="metadata53947">
    <rdf:RDF>
      <cc:Work
         rdf:about="">
        <dc:format>image/svg+xml</dc:format>
        <dc:type
           rdf:resource="http://purl.org/dc/dcmitype/StillImage" />
        <dc:title></dc:title>
      </cc:Work>
    </rdf:RDF>
  </metadata>
  <g
     inkscape:label="Layer 1"
     inkscape:groupmode="layer"
     id="layer1"
     transform="translate(105.38112,630.3815)">
    <g
       transform="matrix(1.25,0,0,-1.25,-1097.5828,-329.1885)"
       id="g52224"
       clip-path="url(#clipPath52226)">
      <g
         id="g54702">
        <path
           inkscape:connector-curvature="0"
           d="M 826.7949,235.2939 826.7749,235.2939 825.7459,229.6639 824.3299,229.6639 823.0079,236.5339 824.1329,236.5339 825.0509,231.2399 825.0699,231.2399 826.0549,236.5339 827.5179,236.5339 828.4919,231.2399 828.5119,231.2399 829.4669,236.5339 830.5549,236.5339 829.2029,229.6639 827.7699,229.6639 826.7949,235.2939 Z"
           style="fill:#05a1e6;fill-opacity:1;fill-rule:nonzero;stroke:none"
           id="path52240" />
        <path
           inkscape:connector-curvature="0"
           d="M 832.5508,230.4521 C 833.3008,230.4521 833.4708,231.3571 833.4708,232.2041 833.4708,233.0511 833.3008,233.9451 832.5508,233.9451 831.8008,233.9451 831.6228,233.0511 831.6228,232.2041 831.6228,231.3571 831.8008,230.4521 832.5508,230.4521 M 832.5508,234.8121 C 833.5348,234.8121 834.6698,234.2701 834.6698,232.2041 834.6698,230.0781 833.5348,229.5861 832.5508,229.5861 831.5668,229.5861 830.4238,230.0781 830.4238,232.2041 830.4238,234.2701 831.5668,234.8121 832.5508,234.8121"
           style="fill:#05a1e6;fill-opacity:1;fill-rule:nonzero;stroke:none"
           id="path52244" />
        <path
           inkscape:connector-curvature="0"
           d="M 835.3906,233.8965 C 835.3906,234.2105 835.3806,234.5065 835.3536,234.7335 L 836.4046,234.7335 C 836.4116,234.4275 836.4416,234.1135 836.4416,233.8075 L 836.4606,233.8075 C 836.6016,234.2025 836.9666,234.8125 837.6876,234.8125 837.7616,234.8125 837.8186,234.7925 837.8846,234.7825 L 837.8846,233.6405 C 837.7816,233.6695 837.6776,233.6905 837.5566,233.6905 837.0776,233.6905 836.5526,233.3845 836.5526,232.4405 L 836.5526,229.6645 835.3906,229.6645 835.3906,233.8965 Z"
           style="fill:#05a1e6;fill-opacity:1;fill-rule:nonzero;stroke:none"
           id="path52248" />
        <path
           id="path52250"
           style="fill:#05a1e6;fill-opacity:1;fill-rule:nonzero;stroke:none"
           d="M 838.617,237.047 839.781,237.047 839.781,229.664 838.617,229.664 838.617,237.047 Z"
           inkscape:connector-curvature="0" />
        <path
           inkscape:connector-curvature="0"
           d="M 842.5488,230.4805 C 843.2328,230.4805 843.4668,231.2595 843.4668,232.2125 843.4668,233.1975 843.2048,233.9165 842.5688,233.9165 841.9198,233.9165 841.6948,233.2575 841.6948,232.2425 841.6948,231.0725 841.8728,230.4805 842.5488,230.4805 M 844.6288,237.0465 844.6288,230.5315 C 844.6288,230.1665 844.6388,229.8515 844.6678,229.6645 L 843.5798,229.6645 C 843.5608,229.8125 843.5428,230.1075 843.5428,230.4525 L 843.5138,230.4525 C 843.3258,230.0195 842.9808,229.5855 842.2308,229.5855 841.0288,229.5855 840.5328,230.7875 840.5328,232.1935 840.5328,233.8475 841.1618,234.8125 842.2028,234.8125 842.8948,234.8125 843.2788,234.3985 843.4468,234.0035 L 843.4668,234.0035 843.4668,237.0465 844.6288,237.0465 Z"
           style="fill:#05a1e6;fill-opacity:1;fill-rule:nonzero;stroke:none"
           id="path52254" />
        <path
           inkscape:connector-curvature="0"
           d="M 848.459,236.5342 849.66,236.5342 849.66,233.7392 851.6,233.7392 851.6,236.5342 852.799,236.5342 852.799,229.6642 851.6,229.6642 851.6,232.6952 849.66,232.6952 849.66,229.6642 848.459,229.6642 848.459,236.5342 Z"
           style="fill:#05a1e6;fill-opacity:1;fill-rule:nonzero;stroke:none"
           id="path52258" />
        <path
           inkscape:connector-curvature="0"
           d="M 856.3711,232.6367 C 856.3711,233.5327 856.0881,233.9847 855.5641,233.9847 854.9551,233.9847 854.7031,233.3067 854.7031,232.6367 L 856.3711,232.6367 Z M 857.2521,229.9097 C 857.0081,229.8027 856.5021,229.5857 855.8091,229.5857 854.2521,229.5857 853.5761,230.7577 853.5761,232.1247 853.5761,233.6407 854.3381,234.8127 855.5641,234.8127 856.6051,234.8127 857.4941,234.1717 857.4941,232.1057 L 857.4941,231.8687 854.7031,231.8687 C 854.7031,231.0037 855.0291,230.4807 855.9301,230.4807 856.6421,230.4807 856.9781,230.7067 857.1951,230.8747 L 857.2521,229.9097 Z"
           style="fill:#05a1e6;fill-opacity:1;fill-rule:nonzero;stroke:none"
           id="path52262" />
        <path
           inkscape:connector-curvature="0"
           d="M 860.8223,232.1445 860.7183,232.1445 C 859.7263,232.1445 859.1363,231.9285 859.1363,231.1905 859.1363,230.7285 859.4263,230.4125 859.8773,230.4125 860.5703,230.4125 860.8223,230.9545 860.8223,231.8595 L 860.8223,232.1445 Z M 858.5373,234.4375 C 858.8633,234.5955 859.3243,234.8125 860.0643,234.8125 861.5623,234.8125 861.9103,234.0445 861.9103,232.7745 L 861.9103,230.5605 C 861.9103,230.1965 861.9473,229.8615 861.9763,229.6645 L 860.9263,229.6645 C 860.8693,229.8615 860.8593,230.1075 860.8593,230.3535 L 860.8423,230.3535 C 860.5513,229.9395 860.1853,229.5855 859.4923,229.5855 858.7423,229.5855 858.0493,230.1265 858.0493,231.0725 858.0493,232.4495 859.1173,232.7945 860.5883,232.7945 L 860.8223,232.7945 860.8223,232.9815 C 860.8223,233.4835 860.5883,233.9455 859.9243,233.9455 859.3423,233.9455 858.8263,233.6505 858.6013,233.4535 L 858.5373,234.4375 Z"
           style="fill:#05a1e6;fill-opacity:1;fill-rule:nonzero;stroke:none"
           id="path52266" />
        <path
           id="path52268"
           style="fill:#05a1e6;fill-opacity:1;fill-rule:nonzero;stroke:none"
           d="M 863.053,237.047 864.217,237.047 864.217,229.664 863.053,229.664 863.053,237.047 Z"
           inkscape:connector-curvature="0" />
        <path
           inkscape:connector-curvature="0"
           d="M 865.668,235.7764 866.832,236.1504 866.832,234.7334 867.797,234.7334 867.797,233.8384 866.832,233.8384 866.832,231.2104 C 866.832,230.6684 867.02,230.5104 867.355,230.5104 867.563,230.5104 867.713,230.5704 867.797,230.6194 L 867.797,229.7544 C 867.619,229.6644 867.365,229.5864 867.02,229.5864 866.156,229.5864 865.668,229.9994 865.668,231.0624 L 865.668,233.8384 864.9,233.8384 864.9,234.7334 865.668,234.7334 865.668,235.7764 Z"
           style="fill:#05a1e6;fill-opacity:1;fill-rule:nonzero;stroke:none"
           id="path52272" />
        <path
           inkscape:connector-curvature="0"
           d="M 868.3965,237.0469 869.5585,237.0469 869.5585,234.0839 869.5855,234.0839 C 869.7925,234.3989 870.0645,234.8129 870.7875,234.8129 871.8825,234.8129 872.2125,233.9559 872.2125,232.9319 L 872.2125,229.6639 871.0485,229.6639 871.0485,232.7049 C 871.0485,233.4839 870.8615,233.8079 870.3845,233.8079 869.7755,233.8079 869.5585,233.2669 869.5585,232.6169 L 869.5585,229.6639 868.3965,229.6639 868.3965,237.0469 Z"
           style="fill:#05a1e6;fill-opacity:1;fill-rule:nonzero;stroke:none"
           id="path52276" />
        <path
           inkscape:connector-curvature="0"
           d="M 825.5664,221.7559 C 826.3264,221.7559 826.9354,222.4359 826.9354,224.3239 826.9354,226.2139 826.3264,226.8929 825.5664,226.8929 824.8084,226.8929 824.1974,226.2139 824.1974,224.3239 824.1974,222.4359 824.8084,221.7559 825.5664,221.7559 M 825.5664,227.8579 C 826.9274,227.8579 828.1734,226.7949 828.1734,224.3239 828.1734,221.8539 826.9274,220.7909 825.5664,220.7909 824.2074,220.7909 822.9614,221.8539 822.9614,224.3239 822.9614,226.7949 824.2074,227.8579 825.5664,227.8579"
           style="fill:#05a1e6;fill-opacity:1;fill-rule:nonzero;stroke:none"
           id="path52280" />
        <path
           inkscape:connector-curvature="0"
           d="M 828.9551,225.1221 C 828.9551,225.4361 828.9471,225.7311 828.9181,225.9591 L 829.9691,225.9591 C 829.9781,225.6521 830.0061,225.3381 830.0061,225.0331 L 830.0251,225.0331 C 830.1661,225.4281 830.5311,226.0371 831.2521,226.0371 831.3281,226.0371 831.3851,226.0181 831.4491,226.0081 L 831.4491,224.8651 C 831.3481,224.8941 831.2441,224.9141 831.1211,224.9141 830.6441,224.9141 830.1191,224.6091 830.1191,223.6641 L 830.1191,220.8901 828.9551,220.8901 828.9551,225.1221 Z"
           style="fill:#05a1e6;fill-opacity:1;fill-rule:nonzero;stroke:none"
           id="path52284" />
        <path
           inkscape:connector-curvature="0"
           d="M 833.9785,221.7852 C 834.7085,221.7852 834.9995,222.3362 834.9995,223.4872 834.9995,224.5512 834.6155,225.1222 834.0625,225.1122 833.4535,225.1012 833.2185,224.5122 833.2185,223.4782 833.2185,222.2872 833.5835,221.7852 833.9785,221.7852 M 832.1695,220.1012 C 832.4435,219.9452 832.9865,219.6692 833.5955,219.6692 834.6935,219.6692 834.8715,220.4672 834.8715,221.2642 L 834.8715,221.7462 834.8515,221.7462 C 834.6645,221.3522 834.3355,220.8892 833.5765,220.8892 832.9005,220.8892 831.8885,221.3612 831.8885,223.4092 831.8885,224.8062 832.3675,226.0372 833.6325,226.0372 834.3355,226.0372 834.6645,225.6132 834.9085,225.1702 L 834.9455,225.1702 C 834.9455,225.4362 834.9725,225.6922 834.9825,225.9592 L 836.0335,225.9592 C 836.0135,225.6922 835.9945,225.4282 835.9945,225.1612 L 835.9945,221.4212 C 835.9945,219.8362 835.5355,218.7042 833.7635,218.7042 832.9965,218.7042 832.3865,218.9112 832.1055,219.0192 L 832.1695,220.1012 Z"
           style="fill:#05a1e6;fill-opacity:1;fill-rule:nonzero;stroke:none"
           id="path52288" />
        <path
           inkscape:connector-curvature="0"
           d="M 839.5391,223.3691 839.4351,223.3691 C 838.4431,223.3691 837.8521,223.1541 837.8521,222.4141 837.8521,221.9531 838.1431,221.6391 838.5921,221.6391 839.2871,221.6391 839.5391,222.1791 839.5391,223.0841 L 839.5391,223.3691 Z M 837.2521,225.6631 C 837.5801,225.8201 838.0411,226.0371 838.7811,226.0371 840.2791,226.0371 840.6271,225.2691 840.6271,224.0001 L 840.6271,221.7851 C 840.6271,221.4211 840.6641,221.0861 840.6931,220.8901 L 839.6431,220.8901 C 839.5861,221.0861 839.5761,221.3321 839.5761,221.5781 L 839.5591,221.5781 C 839.2681,221.1651 838.9021,220.8101 838.2091,220.8101 837.4591,220.8101 836.7661,221.3521 836.7661,222.2971 836.7661,223.6761 837.8341,224.0191 839.3051,224.0191 L 839.5391,224.0191 839.5391,224.2061 C 839.5391,224.7091 839.3051,225.1701 838.6411,225.1701 838.0591,225.1701 837.5431,224.8751 837.3181,224.6791 L 837.2521,225.6631 Z"
           style="fill:#05a1e6;fill-opacity:1;fill-rule:nonzero;stroke:none"
           id="path52292" />
        <path
           inkscape:connector-curvature="0"
           d="M 841.7988,225.1221 C 841.7988,225.4361 841.7888,225.7311 841.7618,225.9591 L 842.8478,225.9591 C 842.8578,225.7021 842.8848,225.4361 842.8848,225.1811 L 842.9138,225.1811 842.9038,225.1811 C 843.0738,225.4861 843.4028,226.0371 844.1898,226.0371 845.2848,226.0371 845.6128,225.1811 845.6128,224.1571 L 845.6128,220.8901 844.4508,220.8901 844.4508,223.9311 C 844.4508,224.7091 844.2638,225.0331 843.7868,225.0331 843.1778,225.0331 842.9608,224.4921 842.9608,223.8421 L 842.9608,220.8901 841.7988,220.8901 841.7988,225.1221 Z"
           style="fill:#05a1e6;fill-opacity:1;fill-rule:nonzero;stroke:none"
           id="path52296" />
        <path
           id="path52298"
           style="fill:#05a1e6;fill-opacity:1;fill-rule:nonzero;stroke:none"
           d="M 846.68,225.959 847.842,225.959 847.842,220.89 846.68,220.89 846.68,225.959 Z M 846.66,228.114 847.861,228.114 847.861,226.912 846.66,226.912 846.66,228.114 Z"
           inkscape:connector-curvature="0" />
        <path
           inkscape:connector-curvature="0"
           d="M 848.9238,221.9434 850.9868,225.0334 848.9898,225.0334 848.9898,225.9594 852.1488,225.9594 852.1488,224.9144 850.1248,221.8144 852.2128,221.8144 852.2128,220.8894 848.9238,220.8894 848.9238,221.9434 Z"
           style="fill:#05a1e6;fill-opacity:1;fill-rule:nonzero;stroke:none"
           id="path52302" />
        <path
           inkscape:connector-curvature="0"
           d="M 855.6016,223.3691 855.4996,223.3691 C 854.5056,223.3691 853.9146,223.1541 853.9146,222.4141 853.9146,221.9531 854.2056,221.6391 854.6546,221.6391 855.3496,221.6391 855.6016,222.1791 855.6016,223.0841 L 855.6016,223.3691 Z M 853.3146,225.6631 C 853.6426,225.8201 854.1016,226.0371 854.8416,226.0371 856.3416,226.0371 856.6896,225.2691 856.6896,224.0001 L 856.6896,221.7851 C 856.6896,221.4211 856.7266,221.0861 856.7536,220.8901 L 855.7056,220.8901 C 855.6486,221.0861 855.6386,221.3321 855.6386,221.5781 L 855.6216,221.5781 C 855.3306,221.1651 854.9646,220.8101 854.2716,220.8101 853.5216,220.8101 852.8286,221.3521 852.8286,222.2971 852.8286,223.6761 853.8946,224.0191 855.3676,224.0191 L 855.6016,224.0191 855.6016,224.2061 C 855.6016,224.7091 855.3676,225.1701 854.7016,225.1701 854.1216,225.1701 853.6056,224.8751 853.3806,224.6791 L 853.3146,225.6631 Z"
           style="fill:#05a1e6;fill-opacity:1;fill-rule:nonzero;stroke:none"
           id="path52306" />
        <path
           inkscape:connector-curvature="0"
           d="M 858.0254,227.002 859.1874,227.375 859.1874,225.959 860.1524,225.959 860.1524,225.063 859.1874,225.063 859.1874,222.436 C 859.1874,221.893 859.3774,221.736 859.7124,221.736 859.9204,221.736 860.0684,221.795 860.1524,221.844 L 860.1524,220.978 C 859.9744,220.89 859.7224,220.811 859.3774,220.811 858.5134,220.811 858.0254,221.225 858.0254,222.287 L 858.0254,225.063 857.2574,225.063 857.2574,225.959 858.0254,225.959 858.0254,227.002 Z"
           style="fill:#05a1e6;fill-opacity:1;fill-rule:nonzero;stroke:none"
           id="path52310" />
        <path
           id="path52312"
           style="fill:#05a1e6;fill-opacity:1;fill-rule:nonzero;stroke:none"
           d="M 861.102,225.959 862.262,225.959 862.262,220.89 861.102,220.89 861.102,225.959 Z M 860.951,228.114 862.15,228.114 862.15,226.912 860.951,226.912 860.951,228.114 Z"
           inkscape:connector-curvature="0" />
        <path
           inkscape:connector-curvature="0"
           d="M 865.2812,221.6768 C 866.0312,221.6768 866.1992,222.5818 866.1992,223.4288 866.1992,224.2758 866.0312,225.1698 865.2812,225.1698 864.5312,225.1698 864.3532,224.2758 864.3532,223.4288 864.3532,222.5818 864.5312,221.6768 865.2812,221.6768 M 865.2812,226.0368 C 866.2652,226.0368 867.3982,225.4958 867.3982,223.4288 867.3982,221.3028 866.2652,220.8108 865.2812,220.8108 864.2972,220.8108 863.1522,221.3028 863.1522,223.4288 863.1522,225.4958 864.2972,226.0368 865.2812,226.0368"
           style="fill:#05a1e6;fill-opacity:1;fill-rule:nonzero;stroke:none"
           id="path52316" />
        <path
           inkscape:connector-curvature="0"
           d="M 868.4121,225.1221 C 868.4121,225.4361 868.4021,225.7311 868.3731,225.9591 L 869.4611,225.9591 C 869.4711,225.7021 869.5001,225.4361 869.5001,225.1811 L 869.5251,225.1811 869.5171,225.1811 C 869.6851,225.4861 870.0141,226.0371 870.8031,226.0371 871.8981,226.0371 872.2261,225.1811 872.2261,224.1571 L 872.2261,220.8901 871.0641,220.8901 871.0641,223.9311 C 871.0641,224.7091 870.8771,225.0331 870.3981,225.0331 869.7911,225.0331 869.5741,224.4921 869.5741,223.8421 L 869.5741,220.8901 868.4121,220.8901 868.4121,225.1221 Z"
           style="fill:#05a1e6;fill-opacity:1;fill-rule:nonzero;stroke:none"
           id="path52320" />
        <path
           inkscape:connector-curvature="0"
           d="M 810.834,232.4043 810.834,232.5073 810.773,232.4293 810.791,232.3363 810.834,232.4043 Z M 810.791,231.9093 810.834,231.8833 810.885,231.9593 810.961,232.0963 810.918,232.0893 810.852,232.0543 810.816,232.2503 810.773,232.2173 810.809,232.0963 810.766,232.0033 810.705,232.0203 810.629,231.9683 810.637,231.8413 810.791,231.9093 Z M 811.021,232.3793 811.123,232.3013 811.244,232.3283 811.15,232.3533 811.123,232.4563 811.123,232.5333 811.072,232.6273 811.004,232.6003 810.971,232.6273 810.867,232.5333 811.029,232.4473 811.021,232.3793 Z M 811.859,233.1393 811.945,233.0543 811.986,233.0623 812.057,233.0193 812.037,233.0713 811.867,233.1903 811.756,233.2933 811.807,233.1393 811.859,233.1393 Z M 810.457,231.6953 810.5,231.7813 810.313,231.7713 810.227,231.7133 810.32,231.6773 810.457,231.6953 Z M 812.449,231.6773 812.525,231.5413 812.5,231.4903 812.566,231.2593 812.629,231.2423 812.629,231.4903 812.561,231.5763 812.533,231.8323 812.414,232.1423 812.391,232.0883 812.422,231.9093 812.449,231.6773 Z M 811.953,232.9003 812.088,232.6873 812.174,232.6443 812.029,232.8913 811.953,232.9003 Z M 812.338,232.3013 812.389,232.2763 812.262,232.5333 812.193,232.5503 812.262,232.4393 812.338,232.3013 Z M 810.857,234.1723 C 810.852,234.1553 810.846,234.1363 810.838,234.1193 L 810.902,234.0703 810.971,234.0953 810.857,234.1723 Z M 799.486,225.2523 799.477,225.3343 799.385,225.4443 799.33,225.4253 799.43,225.2973 799.422,225.2603 799.504,225.1683 799.561,225.0493 799.605,225.0683 799.561,225.1683 799.486,225.2523 Z M 811.1,236.4843 811.195,236.4153 811.422,236.3373 811.5,236.1973 811.563,236.1973 811.543,236.3453 811.475,236.3983 811.492,236.4763 811.354,236.5373 811.299,236.4843 811.23,236.5193 811.266,236.5983 811.1,236.4843 Z M 808.313,223.1253 808.32,223.1223 C 808.318,223.1253 808.318,223.1293 808.316,223.1333 L 808.313,223.1253 Z M 815.295,226.0933 C 814.84,225.0203 814.189,224.0543 813.363,223.2243 L 812.17,224.4193 C 812.84,225.0933 813.367,225.8793 813.736,226.7523 814.107,227.6303 814.301,228.5603 814.316,229.5193 L 816.006,229.5193 C 815.99,228.3333 815.754,227.1813 815.295,226.0933 M 811.926,224.6623 811.936,224.7223 812.02,224.8003 811.945,225.1843 811.961,225.2883 811.875,225.4493 811.824,225.5013 811.875,225.5083 811.807,225.6033 811.645,225.6113 811.645,225.4843 811.584,225.4323 811.627,225.3303 811.559,225.1333 811.508,225.0993 811.527,225.0603 810.865,225.7223 C 811.875,226.7433 812.443,228.0873 812.471,229.5193 L 814.188,229.5193 C 814.158,227.6293 813.414,225.8533 812.078,224.5093 L 811.926,224.6623 Z M 810.719,223.4333 810.723,223.4413 810.783,223.5453 810.723,223.6983 810.943,223.8843 810.928,224.0143 810.766,224.0993 810.928,224.4163 811.115,224.7223 810.893,224.9973 810.816,224.9703 810.715,224.9973 810.619,225.2013 810.578,225.1843 810.629,225.3813 810.662,225.5303 C 810.699,225.5643 810.736,225.5973 810.773,225.6333 L 811.512,224.8933 811.516,224.8863 811.521,224.8843 811.986,224.4203 C 811.596,224.0413 811.172,223.7133 810.719,223.4333 M 810.525,226.3883 810.242,226.1663 810.201,226.1333 810.176,226.1753 810.039,226.1753 809.842,226.1333 809.654,226.2103 809.561,226.2103 809.414,226.3213 809.32,226.3123 809.236,226.3883 809.1,226.3983 809.031,226.4923 808.971,226.5153 C 808.975,226.5173 808.979,226.5213 808.984,226.5233 L 809.064,226.5093 809.064,226.5513 809.262,226.5173 809.33,226.4743 809.543,226.4413 809.561,226.3883 809.73,226.3883 809.961,226.3213 810.027,226.2123 810.168,226.2183 810.27,226.3303 810.355,226.5003 810.482,226.8343 810.457,226.8923 810.518,226.9543 810.568,227.1583 810.535,227.2443 810.578,227.3123 810.518,227.3893 810.5,227.5933 810.355,227.5603 810.27,227.4413 810.143,227.4493 810.158,227.2953 810.057,227.1683 809.971,227.2103 809.893,227.1413 809.697,227.1253 809.689,227.1313 C 809.732,227.1783 809.773,227.2283 809.814,227.2783 L 809.902,227.2783 809.996,227.2953 810.09,227.3963 810.107,227.4783 810.201,227.4823 810.381,227.7483 810.525,228.0553 810.91,228.2343 810.902,228.3383 810.852,228.3883 810.877,228.4233 810.996,228.3633 811.252,228.3123 811.457,228.3983 811.791,228.4663 811.705,228.7053 811.559,228.8493 811.381,228.8593 811.15,229.4143 811.115,229.3883 811.029,229.4573 811.098,229.5003 811.094,229.5193 812.344,229.5193 C 812.314,228.1213 811.762,226.8103 810.773,225.8143 L 810.736,225.8513 810.748,225.8943 810.791,226.1073 810.748,226.4413 810.672,226.6363 810.619,226.5863 810.525,226.4493 810.525,226.3883 Z M 809.441,231.2093 809.586,231.2593 809.424,231.3713 809.518,231.4813 809.5,231.5413 809.654,231.6093 809.51,231.7813 809.338,231.6273 809.313,231.5153 809.201,231.5673 809.082,231.5503 809.047,231.6273 809.324,231.9043 809.346,231.8753 809.586,231.8673 809.666,231.9633 C 809.781,231.8283 809.887,231.6843 809.98,231.5333 L 809.979,231.5333 809.859,231.2773 809.67,231.3793 809.621,231.3713 809.67,231.2683 809.73,231.2253 809.67,231.0803 809.645,231.1483 809.441,231.2093 Z M 809.439,232.0183 809.533,232.1143 C 809.568,232.0773 809.604,232.0393 809.635,232.0013 L 809.525,231.9093 809.432,231.9183 809.398,231.9523 809.475,232.0033 809.439,232.0183 Z M 810.822,233.4023 C 810.951,233.2693 811.07,233.1323 811.184,232.9883 L 811.115,232.9513 811.039,232.9333 811.158,232.9003 811.215,232.9483 C 811.268,232.8793 811.32,232.8083 811.369,232.7383 L 811.313,232.7383 811.313,232.7043 811.371,232.6873 811.551,232.4043 811.602,232.3803 C 811.623,232.3433 811.643,232.3063 811.662,232.2703 L 811.662,232.1563 811.543,232.0293 811.51,232.1233 811.406,232.1383 811.449,232.0293 811.371,231.9523 811.559,231.8833 811.637,231.7713 811.791,231.7303 811.799,231.6613 811.936,231.6273 811.961,231.4143 812.043,231.4253 C 812.092,231.2873 812.133,231.1463 812.17,231.0043 L 812.166,231.0043 812.08,230.8573 811.961,230.7993 811.875,230.5503 811.652,230.4223 811.576,230.5583 811.645,230.8833 811.748,230.9613 811.406,231.2253 811.227,231.1313 811.064,230.7993 810.893,230.8923 810.842,231.0293 810.936,231.0723 810.979,231.0113 811.055,231.0373 811.029,231.1403 810.918,231.1743 810.928,231.1053 810.852,231.1053 810.766,231.2343 810.568,231.4303 810.338,231.5923 810.125,231.6093 810.102,231.5803 C 809.965,231.8043 809.805,232.0143 809.625,232.2053 L 810.822,233.4023 Z M 811.68,232.5243 811.676,232.5043 C 811.668,232.5153 811.662,232.5273 811.654,232.5393 L 811.68,232.5243 Z M 811.338,230.1663 811.576,230.3193 811.867,230.3453 811.945,230.5083 812.037,230.5583 812.166,230.7813 812.197,230.8953 C 812.209,230.8533 812.217,230.8113 812.225,230.7693 L 812.174,230.6363 812.193,230.6013 812.125,230.4653 812.131,230.3963 811.996,230.2093 812.02,230.0903 812.072,230.0803 812.209,230.2953 812.209,230.4223 812.277,230.4393 812.283,230.4503 C 812.324,230.1873 812.346,229.9203 812.346,229.6483 L 811.055,229.6483 811.021,229.6713 811.029,229.7733 811.141,229.8163 811.227,229.9353 811.432,229.9613 811.432,230.0473 811.338,230.1663 Z M 810.918,233.4983 811.064,233.3363 811.141,233.5753 811.021,233.5913 811.021,233.6013 811.395,233.9763 811.641,233.7203 811.875,233.7383 811.953,233.6073 811.98,233.4073 812.451,233.1283 812.582,233.1463 812.897,232.7883 812.965,232.6053 813.184,232.3793 813.436,232.3873 813.549,232.6253 C 813.965,231.7013 814.188,230.6913 814.189,229.6483 L 812.475,229.6483 C 812.473,229.9743 812.443,230.2953 812.387,230.6093 L 812.465,230.7303 812.508,230.7303 812.602,231.1313 812.533,231.1483 812.551,231.2173 812.381,231.2093 812.346,231.2523 812.313,231.1743 812.414,231.0883 812.338,231.0633 812.309,230.9883 C 812.268,231.1523 812.219,231.3133 812.162,231.4723 L 812.262,231.6183 812.234,231.7893 812.148,231.8063 812.115,231.9943 812.166,232.0373 812.072,232.1663 811.91,232.1483 811.855,232.1843 C 811.82,232.2533 811.783,232.3203 811.744,232.3873 L 811.91,232.3873 811.875,232.4723 811.986,232.5073 811.986,232.5923 811.91,232.6003 811.799,232.5153 811.764,232.5503 811.859,232.6953 811.781,232.7473 811.688,232.6093 811.574,232.6663 C 811.484,232.8043 811.385,232.9393 811.283,233.0703 L 811.285,233.1043 811.271,233.0863 C 811.16,233.2263 811.039,233.3633 810.914,233.4943 L 810.918,233.4983 Z M 813.412,235.9933 C 814.215,235.1743 814.848,234.2253 815.295,233.1723 815.766,232.0563 816.006,230.8713 816.008,229.6483 L 814.318,229.6483 C 814.316,230.6423 814.121,231.6073 813.736,232.5143 813.699,232.6033 813.66,232.6893 813.619,232.7753 L 813.662,232.8673 813.76,232.8063 813.793,232.9103 813.227,233.8343 813.105,233.8693 812.268,234.8293 812.268,234.8473 813.412,235.9933 Z M 798.539,226.0933 C 798.078,227.1813 797.84,228.3333 797.826,229.5193 L 799.518,229.5193 C 799.527,228.7713 799.65,228.0393 799.879,227.3363 L 799.752,227.2523 799.422,227.4353 799.348,227.3623 799.256,227.4093 799.201,227.3623 799.238,227.2443 799.045,227.2523 798.936,227.3173 798.945,227.4183 798.916,227.5013 798.861,227.5013 798.871,227.4093 798.861,227.3533 798.816,227.3723 798.68,227.3063 798.77,227.2343 798.65,227.2613 798.596,227.1973 798.66,227.1703 798.576,227.1703 798.576,227.0333 798.613,226.9593 798.66,226.9223 798.586,226.9223 798.623,226.8023 798.697,226.7753 798.723,226.7303 798.77,226.6463 798.797,226.5733 798.633,226.6743 798.697,226.5003 798.586,226.7383 798.586,226.5823 798.688,226.3433 798.77,226.1413 799.027,225.6363 799,225.7383 798.797,226.2243 798.797,226.4083 798.898,226.5733 799.229,226.1783 799.273,226.2153 799.221,226.4633 799.283,226.4183 799.385,226.2423 799.551,226.1973 799.623,226.0873 799.688,226.0783 799.633,226.2153 799.688,226.2883 799.744,226.0953 799.863,225.9033 799.973,225.9223 800.266,225.4253 800.432,225.3803 800.479,225.5823 800.541,225.5003 800.789,225.1403 801.1,225.0583 C 801.273,224.8383 801.459,224.6253 801.66,224.4223 L 800.465,223.2273 C 799.641,224.0573 798.992,225.0213 798.539,226.0933 M 798.539,233.1723 C 798.984,234.2243 799.615,235.1703 800.416,235.9883 L 801.611,234.7943 C 800.967,234.1313 800.455,233.3653 800.096,232.5143 799.711,231.6073 799.516,230.6423 799.514,229.6483 L 797.824,229.6483 C 797.826,230.8713 798.066,232.0563 798.539,233.1723 M 801.359,229.5193 C 801.365,229.2583 801.391,229.0003 801.43,228.7463 L 801.34,228.7953 801.34,228.6753 801.275,228.7033 801.221,228.7953 801.092,228.7403 801.074,228.6293 800.779,228.1793 800.697,228.1613 800.662,227.4093 800.449,227.3063 800.387,227.3363 800.285,227.2893 800.047,227.3063 800.02,227.3183 C 799.787,228.0193 799.656,228.7603 799.645,229.5193 L 801.359,229.5193 Z M 803.006,233.3993 804.205,232.2013 C 803.93,231.9103 803.699,231.5743 803.527,231.2063 L 803.461,231.2183 803.516,231.2913 803.379,231.1723 803.268,231.0983 803.242,231.1443 803.049,231.0723 803.059,230.9983 803.158,231.0623 803.332,231.0723 803.486,231.1133 C 803.479,231.0933 803.469,231.0763 803.463,231.0563 L 803.26,230.9153 803.213,230.9623 802.975,230.7873 802.764,230.8233 802.625,230.6583 802.414,230.1903 802.451,230.0613 802.277,229.8323 802.25,229.6583 802.246,229.6483 801.486,229.6483 C 801.49,231.0583 802.029,232.3863 803.006,233.3993 M 803.607,231.0703 C 803.619,231.0933 803.627,231.1173 803.639,231.1403 L 803.672,231.1443 803.635,231.0723 803.607,231.0703 Z M 803.838,228.8593 804.012,228.7853 804.131,228.6383 804.186,228.6753 804.389,228.5473 804.461,228.4553 804.324,228.5093 804.297,228.4553 804.416,228.3903 804.543,228.2903 804.543,228.3543 804.516,228.4553 804.572,228.5473 804.637,228.5843 804.508,228.7403 804.654,228.6663 804.746,228.5473 804.811,228.3823 804.939,228.3543 804.664,228.3083 804.764,228.0883 804.857,228.0783 804.875,228.1713 804.848,228.2813 804.967,228.2903 805.059,228.4463 805.096,228.6753 805.158,228.7033 805.217,228.7933 C 805.303,228.6173 805.416,228.4553 805.553,228.3143 L 804.344,227.1063 C 803.816,227.6423 803.457,228.3423 803.346,229.1233 L 803.414,229.1163 803.645,228.8863 803.838,228.8593 Z M 802.553,229.7873 802.598,230.0903 802.846,230.2173 803.141,230.1443 803.201,230.0333 C 803.188,229.9063 803.18,229.7773 803.18,229.6483 L 802.729,229.6483 802.727,229.6853 802.553,229.7873 Z M 803.055,225.8173 C 802.949,225.9253 802.848,226.0373 802.752,226.1513 L 802.754,226.1513 802.809,226.3433 802.801,226.5643 802.625,226.8673 802.625,227.1783 802.561,227.3813 802.607,227.4643 802.424,227.7943 802.441,227.9143 802.342,228.1073 802.24,228.1333 802.406,228.1613 802.359,228.2253 802.25,228.4653 802.057,228.5193 802.102,228.6753 802.029,228.9243 802.119,229.1343 802.35,229.1523 802.414,229.2633 802.391,229.5193 802.537,229.5193 802.625,229.4923 802.736,229.4373 802.732,229.5193 803.182,229.5193 C 803.186,229.4043 803.195,229.2903 803.209,229.1763 L 803.205,229.1723 803.104,229.1793 802.955,229.0153 803.084,228.9883 803.225,229.0713 C 803.344,228.2773 803.713,227.5633 804.254,227.0153 L 803.055,225.8173 Z M 802.934,225.6973 802.865,225.8323 C 802.898,225.7973 802.93,225.7603 802.965,225.7263 L 802.934,225.6973 Z M 802.486,226.1513 802.469,226.1973 802.561,226.1813 C 802.58,226.1583 802.598,226.1363 802.615,226.1143 L 802.486,226.1513 Z M 801.945,228.5743 801.752,228.5283 801.67,228.6113 801.615,228.6483 801.566,228.7153 C 801.521,228.9783 801.494,229.2483 801.49,229.5193 L 802.213,229.5193 802.203,229.4833 802.102,229.3083 802.037,229.3003 801.918,228.9143 802.029,228.7403 801.945,228.5743 Z M 801.75,224.5133 C 801.623,224.6423 801.5,224.7773 801.385,224.9143 L 801.496,224.8653 801.605,224.9293 801.91,224.7383 801.961,224.7213 801.75,224.5133 Z M 815.412,233.2223 C 814.947,234.3203 814.283,235.3063 813.436,236.1533 812.59,237.0003 811.604,237.6663 810.506,238.1303 809.637,238.4973 808.727,238.7243 807.789,238.8123 807.783,238.7663 807.775,238.7243 807.771,238.6853 808.695,238.5993 809.598,238.3743 810.455,238.0113 811.527,237.5563 812.492,236.9093 813.322,236.0853 L 812.262,235.0233 812.258,235.0993 812.172,235.0903 812.066,235.1423 811.91,235.1853 812.129,235.2203 812.084,235.2823 811.963,235.2823 811.998,235.3773 811.893,235.6383 811.613,235.9793 811.344,236.1533 811.195,236.2403 811.082,236.2153 811.082,236.2843 810.82,236.3983 810.719,236.3013 C 810.908,235.9743 811.008,235.6383 811.025,235.3403 811.039,235.1093 811.027,234.8893 810.994,234.6813 L 811.082,234.7323 811.361,234.2263 811.17,234.2103 811.307,234.0683 810.982,233.7443 810.816,233.9513 810.832,234.1053 C 810.787,233.9993 810.734,233.8963 810.676,233.7973 L 810.697,233.7553 810.902,233.7283 810.922,233.6843 810.824,233.5863 C 810.766,233.6423 810.707,233.6973 810.648,233.7513 810.625,233.7153 810.6,233.6773 810.576,233.6423 810.629,233.5933 810.682,233.5453 810.732,233.4953 L 809.535,232.2973 C 809.436,232.3933 809.332,232.4843 809.225,232.5693 809.18,232.5493 809.137,232.5293 809.09,232.5093 809.215,232.4163 809.332,232.3143 809.443,232.2063 L 809.289,232.0503 809.287,232.0543 809.313,232.1383 809.193,232.1053 809.064,232.1233 809.064,232.2253 808.928,232.1383 808.783,232.0033 808.852,231.9593 808.996,232.0543 809.141,232.0033 809.141,231.9773 809.24,232.0023 808.904,231.6663 808.51,231.5843 808.398,231.4393 808.322,231.3873 808.313,231.3103 808.373,231.3203 808.434,231.2683 808.42,231.1823 808.391,231.1543 808.297,231.1743 808.07,231.1383 C 808.025,231.1723 807.98,231.2043 807.936,231.2343 L 807.92,231.2523 807.855,231.2813 C 807.775,231.3263 807.693,231.3643 807.607,231.3983 L 807.6,230.9123 C 807.598,230.7583 807.596,230.6133 807.594,230.4723 L 807.646,230.4993 807.691,230.4553 807.592,230.3543 C 807.59,230.2913 807.59,230.2303 807.59,230.1703 L 807.779,230.3603 807.74,230.2253 807.797,230.2063 807.836,230.0003 807.945,229.8923 807.689,230.0293 807.668,229.9313 C 808.004,229.7963 808.461,229.5933 808.832,229.3163 809.393,228.8953 809.682,228.3103 809.604,227.7543 809.547,227.3513 809.314,227.0083 808.934,226.7583 L 808.945,226.7153 808.869,226.6203 808.732,226.6033 808.68,226.5173 808.416,226.4063 808.176,226.4153 808.107,226.3123 808.15,226.2443 808.15,226.2433 C 808.117,226.2313 808.086,226.2203 808.053,226.2093 L 807.885,226.1933 807.844,226.2603 807.654,226.2353 807.652,226.2363 C 807.617,226.2243 807.584,226.2133 807.549,226.2013 L 807.549,226.0683 C 807.549,226.0283 807.541,225.7263 807.527,225.2953 808.135,224.9903 808.889,224.4903 808.857,223.1673 808.857,223.1673 808.842,222.9253 808.773,222.7503 L 809.037,222.6743 C 808.521,222.5163 807.986,222.4173 807.439,222.3793 807.438,222.3343 807.438,222.2913 807.436,222.2503 808.01,222.2893 808.574,222.3943 809.121,222.5653 L 809.236,222.5273 809.355,222.4253 809.502,222.4823 809.73,222.5363 809.824,222.6213 810.082,222.7323 810.338,222.9123 810.629,223.2033 810.641,223.2383 C 811.16,223.5413 811.643,223.9043 812.078,224.3283 L 813.272,223.1343 C 812.453,222.3343 811.508,221.7003 810.455,221.2563 809.336,220.7813 808.145,220.5413 806.916,220.5413 805.689,220.5413 804.498,220.7813 803.377,221.2563 802.324,221.7013 801.377,222.3343 800.557,223.1363 L 801.752,224.3333 C 802.416,223.6853 803.184,223.1743 804.035,222.8123 804.799,222.4903 805.604,222.3023 806.43,222.2493 806.43,222.2913 806.428,222.3343 806.426,222.3783 804.699,222.4923 803.09,223.2073 801.842,224.4243 L 802.098,224.6773 802.314,224.4893 802.764,224.5253 802.947,224.7093 803.195,224.7013 803.424,224.6733 803.543,224.7633 803.535,224.8753 803.406,225.0213 803.25,225.3243 803.094,225.3883 802.996,225.5773 803.057,225.6363 C 803.969,224.7563 805.129,224.2203 806.379,224.1003 806.377,224.1443 806.377,224.1873 806.375,224.2303 805.16,224.3493 804.033,224.8713 803.147,225.7273 L 804.344,226.9253 C 804.66,226.6253 805.029,226.3803 805.434,226.2043 805.441,226.2473 805.453,226.2893 805.467,226.3323 805.084,226.5013 804.734,226.7323 804.436,227.0153 L 805.645,228.2253 C 805.834,228.0543 806.057,227.9243 806.303,227.8393 L 806.301,227.9743 C 806.09,228.0543 805.9,228.1703 805.736,228.3163 L 805.816,228.3963 805.859,228.3983 805.932,228.4713 806.094,228.4513 806.186,228.5043 806.291,228.5133 806.287,228.7283 805.918,228.8493 805.904,228.8373 805.754,228.8113 805.645,228.6603 805.598,228.4663 805.6,228.4553 C 805.449,228.6233 805.33,228.8173 805.254,229.0333 L 805.264,229.0903 C 805.154,229.1383 805.051,229.1913 804.957,229.2503 L 804.875,229.2083 804.783,229.2633 804.645,229.2083 804.572,229.2733 804.654,229.3543 804.764,229.3773 C 804.385,229.6583 804.158,230.0173 804.039,230.4963 803.967,230.7833 803.947,231.0623 803.971,231.3283 L 803.801,231.2633 803.693,231.2533 C 803.805,231.4733 803.939,231.6813 804.094,231.8753 804.148,232.0233 804.217,232.1693 804.307,232.3043 804.301,232.3003 804.299,232.2973 804.295,232.2933 L 803.096,233.4913 C 803.934,234.3203 804.992,234.8433 806.137,235.0083 806.137,235.0503 806.137,235.0933 806.135,235.1363 804.957,234.9713 803.865,234.4343 803.006,233.5823 L 802.715,233.8723 C 802.715,233.8713 802.715,233.8713 802.713,233.8693 802.691,233.8223 802.674,233.7823 802.66,233.7473 L 802.916,233.4903 C 801.916,232.4533 801.363,231.0933 801.359,229.6483 L 799.643,229.6483 C 799.646,231.5513 800.379,233.3413 801.703,234.7033 L 802.174,234.2313 C 802.207,234.2283 802.244,234.2253 802.283,234.2283 802.305,234.2303 802.328,234.2343 802.35,234.2383 L 801.793,234.7953 C 802.166,235.1663 802.572,235.4903 803.006,235.7653 803.031,235.8403 803.063,235.9103 803.104,235.9803 802.596,235.6743 802.127,235.3083 801.701,234.8863 L 800.506,236.0823 C 801.338,236.9073 802.303,237.5563 803.377,238.0113 804.23,238.3723 805.125,238.5963 806.045,238.6833 L 806.025,238.8103 C 805.096,238.7223 804.191,238.4943 803.326,238.1303 802.229,237.6663 801.242,237.0003 800.396,236.1533 799.551,235.3063 798.885,234.3203 798.42,233.2223 797.939,232.0863 797.695,230.8783 797.695,229.6333 797.695,228.3883 797.939,227.1813 798.42,226.0443 798.885,224.9463 799.551,223.9613 800.396,223.1133 801.242,222.2653 802.229,221.6013 803.326,221.1363 804.463,220.6573 805.672,220.4123 806.916,220.4123 808.16,220.4123 809.369,220.6573 810.506,221.1363 811.604,221.6013 812.59,222.2653 813.436,223.1133 814.283,223.9613 814.947,224.9463 815.412,226.0443 815.893,227.1813 816.137,228.3883 816.137,229.6333 816.137,230.8783 815.893,232.0863 815.412,233.2223 M 811.945,228.8843 811.705,228.7993 811.764,228.7053 811.936,228.6883 811.945,228.8843 Z M 805.404,229.0293 C 805.379,229.0393 805.354,229.0503 805.328,229.0603 L 805.314,228.8953 805.404,229.0293 Z M 805.52,228.9843 C 805.482,228.9983 805.443,229.0113 805.408,229.0273 L 805.416,228.9243 805.52,228.9843 Z M 802.553,233.8523 C 802.561,233.9103 802.572,233.9593 802.584,234.0043 L 802.51,234.0783 C 802.455,234.0663 802.398,234.0583 802.344,234.0623 L 802.553,233.8523 Z M 806.078,231.1643 806.07,231.1873 C 806.074,231.1893 806.076,231.1903 806.078,231.1933 L 806.078,231.1643 Z M 806.068,231.3923 806.078,231.3363 C 805.965,231.2793 805.859,231.2093 805.76,231.1323 805.76,230.9983 805.811,230.8543 805.912,230.7243 805.957,230.6693 806.006,230.6213 806.072,230.5763 L 806.254,230.6543 806.24,231.4363 806.178,231.4293 806.197,231.5213 806.236,231.5843 806.236,231.6633 806.197,231.6313 806.115,231.5023 806.068,231.3923 Z M 807.494,224.1113 807.494,224.1063 C 807.496,224.1063 807.5,224.1073 807.502,224.1073 807.5,224.1093 807.496,224.1113 807.494,224.1113 M 802.828,228.4363 802.791,228.4093 802.764,228.3733 802.699,228.5093 802.672,228.4823 802.699,228.3633 802.736,228.2903 802.709,228.2443 802.781,228.1523 802.828,228.0503 802.865,228.0603 802.875,228.2173 802.836,228.2993 802.828,228.4363 Z M 802.754,229.2633 802.828,229.0703 802.781,229.0063 802.801,228.9043 802.771,228.7583 802.717,228.7203 802.809,228.4823 802.836,228.4923 802.809,228.7033 802.883,229.0603 802.828,229.2443 802.754,229.2633 Z M 807.74,228.0723 807.746,228.0723 C 807.742,228.0703 807.738,228.0683 807.736,228.0663 L 807.74,228.0723 Z M 807.637,227.7903 807.654,227.7223 807.646,227.6913 C 807.924,227.8283 807.965,227.9063 807.963,227.9433 807.953,228.0523 807.789,228.1663 807.557,228.2763 807.555,228.1923 807.553,228.1193 807.553,228.0513 L 807.6,228.0023 C 807.584,227.9963 807.566,227.9903 807.551,227.9843 807.551,227.9333 807.549,227.8863 807.549,227.8463 807.576,227.8553 807.604,227.8633 807.631,227.8753 L 807.637,227.7903 Z M 808.664,231.8493 808.791,231.8493 808.816,231.9003 808.705,231.9253 808.664,231.9943 808.527,231.9853 808.596,231.8923 808.596,231.7813 808.664,231.8493 Z M 808.467,231.6953 808.406,231.6523 808.381,231.6873 808.219,231.4143 808.365,231.4393 808.373,231.5413 808.484,231.6523 808.57,231.7303 808.518,231.7993 808.467,231.6953 Z M 807.869,231.8063 807.697,231.7993 807.646,231.7133 807.611,231.7133 807.607,231.4363 807.783,231.5153 807.869,231.8063 Z M 809.082,234.7543 C 808.633,234.9433 808.16,235.0723 807.674,235.1383 807.672,235.0953 807.672,235.0523 807.67,235.0093 808.135,234.9453 808.586,234.8233 809.012,234.6443 809.037,234.6793 809.061,234.7173 809.082,234.7543"
           style="fill:#05a1e6;fill-opacity:1;fill-rule:nonzero;stroke:none"
           id="path52324" />
        <path
           inkscape:connector-curvature="0"
           d="M 803.9355,216.709 804.6115,216.643 C 804.6115,216.643 805.4725,218.539 807.6425,218.629 809.0375,218.688 810.2555,217.99 811.7385,217.884 813.5215,217.754 814.7385,218.131 815.7575,219.101 814.6795,218.508 813.4085,218.764 811.9355,219.101 810.9805,219.321 809.9995,219.413 809.2715,219.406 805.8945,219.373 803.9355,216.709 803.9355,216.709"
           style="fill:#05a1e6;fill-opacity:1;fill-rule:nonzero;stroke:none"
           id="path52328" />
        <path
           inkscape:connector-curvature="0"
           d="M 814.123,222.9687 C 813.807,222.6547 813.383,222.2387 812.973,221.3557 812.572,220.4977 812.568,220.1527 812.18,219.5277 813.062,219.8587 813.715,219.2207 815.941,220.0457 816.971,220.4257 817.703,221.3957 818.043,222.2387 817.25,221.5217 816.609,221.1577 815.666,221.0197 814.738,220.8827 814.144,220.8227 813.367,220.3647 813.855,220.8827 814.037,221.1717 814.297,221.8577 814.574,222.5917 814.529,223.2247 814.846,223.7907 814.617,223.5037 814.437,223.2847 814.123,222.9687"
           style="fill:#05a1e6;fill-opacity:1;fill-rule:nonzero;stroke:none"
           id="path52332" />
        <path
           inkscape:connector-curvature="0"
           d="M 815.2441,224.0664 C 815.0141,222.8604 815.0821,221.8524 814.4631,221.0814 815.2851,221.7634 816.0861,221.7594 817.1891,222.2544 818.5061,222.9004 819.1991,224.0314 819.5641,225.6784 819.2711,224.9524 818.5231,224.2634 817.6911,223.7444 816.9801,223.3004 816.2241,223.0834 815.6971,222.4354 816.0021,222.8004 816.0821,222.9784 816.1501,223.3864 816.3631,224.5034 816.0081,225.1364 816.1781,226.3024 816.0061,225.8204 815.3921,224.8434 815.2441,224.0664"
           style="fill:#05a1e6;fill-opacity:1;fill-rule:nonzero;stroke:none"
           id="path52336" />
        <path
           inkscape:connector-curvature="0"
           d="M 816.4941,227.6094 C 816.4081,225.7194 817.1831,225.3324 816.6251,223.5924 817.1131,224.2934 817.6891,224.5044 818.4371,225.1614 819.3691,225.9844 820.1371,227.2264 820.0661,228.9064 819.8901,228.4364 819.3361,227.5364 818.7261,226.8964 818.1191,226.2574 817.6051,225.4904 817.3421,224.9634 817.9511,227.0524 816.8611,227.8474 816.7301,229.0994 816.6971,228.6284 816.5231,227.9244 816.4941,227.6094"
           style="fill:#05a1e6;fill-opacity:1;fill-rule:nonzero;stroke:none"
           id="path52340" />
        <path
           inkscape:connector-curvature="0"
           d="M 816.8555,229.7578 C 816.6915,230.3708 816.7615,230.7368 816.6195,231.4238 816.8715,230.8098 818.3325,229.7218 818.1795,227.6278 818.2595,228.0118 818.5605,229.1738 818.9865,229.9868 819.3205,230.6268 819.6605,231.2658 819.5805,232.2108 819.9645,230.9648 819.9455,230.2458 819.7775,229.6208 819.6095,228.9978 819.1935,228.5188 818.8345,228.0238 818.5975,227.6968 818.0975,227.0628 817.8595,226.4708 817.8765,227.7518 817.0725,228.9548 816.8555,229.7578"
           style="fill:#05a1e6;fill-opacity:1;fill-rule:nonzero;stroke:none"
           id="path52344" />
        <path
           inkscape:connector-curvature="0"
           d="M 816.3906,232.5547 C 816.1156,233.0787 816.0096,233.5117 815.6546,234.1777 815.8726,233.8927 816.0646,233.7397 816.6116,233.2757 817.3636,232.6387 817.9356,231.9207 818.2346,230.7287 818.2556,231.4707 818.3456,231.9157 818.4976,232.7437 818.6346,233.4897 818.5996,234.3427 818.2536,235.2867 818.9196,234.4807 819.4926,232.8967 819.1676,231.8297 818.9116,230.8187 818.4746,230.3067 818.3456,229.5917 817.9026,231.0207 816.7676,231.8337 816.3906,232.5547"
           style="fill:#05a1e6;fill-opacity:1;fill-rule:nonzero;stroke:none"
           id="path52348" />
        <path
           inkscape:connector-curvature="0"
           d="M 816.75,233.877 C 816.418,234.145 815.584,234.664 815.176,235.145 814.768,235.623 814.562,236.08 814.275,236.502 814.877,235.949 815.205,235.785 815.818,235.408 816.375,235.09 817.129,234.662 817.432,233.988 817.25,234.494 817.158,235.164 817.098,235.729 817.006,236.567 816.664,237.078 816.412,237.387 817.234,236.727 817.73,236.169 817.951,234.981 818.17,233.793 817.92,232.896 818.004,232.256 817.568,233.12 817.084,233.609 816.75,233.877"
           style="fill:#05a1e6;fill-opacity:1;fill-rule:nonzero;stroke:none"
           id="path52352" />
        <path
           inkscape:connector-curvature="0"
           d="M 816.9004,235.1182 C 816.5354,236.2152 816.1524,236.8692 815.4084,237.4942 814.4314,238.3132 813.3964,238.6972 812.9864,238.8942 813.7854,238.3252 813.7444,237.8322 814.8064,236.8312 815.6364,236.0482 816.2204,235.9862 816.9004,235.1182"
           style="fill:#05a1e6;fill-opacity:1;fill-rule:nonzero;stroke:none"
           id="path52356" />
        <path
           inkscape:connector-curvature="0"
           d="M 809.8965,216.709 809.2205,216.643 C 809.2205,216.643 808.3595,218.539 806.1895,218.629 804.7945,218.688 803.5785,217.99 802.0935,217.884 800.3105,217.754 799.0935,218.131 798.0745,219.101 799.1525,218.508 800.4255,218.764 801.8945,219.101 802.8535,219.321 803.8345,219.413 804.5605,219.406 807.9355,219.373 809.8965,216.709 809.8965,216.709"
           style="fill:#05a1e6;fill-opacity:1;fill-rule:nonzero;stroke:none"
           id="path52360" />
        <path
           inkscape:connector-curvature="0"
           d="M 799.709,222.9687 C 800.025,222.6547 800.449,222.2387 800.861,221.3557 801.26,220.4977 801.264,220.1527 801.652,219.5277 800.77,219.8587 800.117,219.2207 797.891,220.0457 796.861,220.4257 796.131,221.3957 795.791,222.2387 796.582,221.5217 797.223,221.1577 798.166,221.0197 799.094,220.8827 799.688,220.8227 800.465,220.3647 799.977,220.8827 799.795,221.1717 799.535,221.8577 799.258,222.5917 799.303,223.2247 798.988,223.7907 799.215,223.5037 799.395,223.2847 799.709,222.9687"
           style="fill:#05a1e6;fill-opacity:1;fill-rule:nonzero;stroke:none"
           id="path52364" />
        <path
           inkscape:connector-curvature="0"
           d="M 798.5879,224.0664 C 798.8199,222.8604 798.7519,221.8524 799.3669,221.0814 798.5469,221.7634 797.7459,221.7594 796.6429,222.2544 795.3279,222.9004 794.6309,224.0314 794.2679,225.6784 794.5589,224.9524 795.3089,224.2634 796.1409,223.7444 796.8519,223.3004 797.6089,223.0834 798.1349,222.4354 797.8299,222.8004 797.7499,222.9784 797.6819,223.3864 797.4689,224.5034 797.8239,225.1364 797.6539,226.3024 797.8259,225.8204 798.4399,224.8434 798.5879,224.0664"
           style="fill:#05a1e6;fill-opacity:1;fill-rule:nonzero;stroke:none"
           id="path52368" />
        <path
           inkscape:connector-curvature="0"
           d="M 797.3379,227.6094 C 797.4239,225.7194 796.6509,225.3324 797.2069,223.5924 796.7189,224.2934 796.1429,224.5044 795.3949,225.1614 794.4629,225.9844 793.6949,227.2264 793.7659,228.9064 793.9399,228.4364 794.4959,227.5364 795.1059,226.8964 795.7149,226.2574 796.2269,225.4904 796.4899,224.9634 795.8809,227.0524 796.9709,227.8474 797.1019,229.0994 797.1349,228.6284 797.3089,227.9244 797.3379,227.6094"
           style="fill:#05a1e6;fill-opacity:1;fill-rule:nonzero;stroke:none"
           id="path52372" />
        <path
           inkscape:connector-curvature="0"
           d="M 796.9766,229.7578 C 797.1406,230.3708 797.0706,230.7368 797.2126,231.4238 796.9626,230.8098 795.5016,229.7218 795.6526,227.6278 795.5706,228.0118 795.2716,229.1738 794.8456,229.9868 794.5116,230.6268 794.1716,231.2658 794.2516,232.2108 793.8676,230.9648 793.8866,230.2458 794.0546,229.6208 794.2226,228.9978 794.6386,228.5188 794.9976,228.0238 795.2346,227.6968 795.7346,227.0628 795.9746,226.4708 795.9536,227.7518 796.7596,228.9548 796.9766,229.7578"
           style="fill:#05a1e6;fill-opacity:1;fill-rule:nonzero;stroke:none"
           id="path52376" />
        <path
           inkscape:connector-curvature="0"
           d="M 797.3145,232.3594 C 797.6645,232.8774 797.8225,233.5114 798.1775,234.1774 797.9595,233.8924 797.7675,233.7394 797.2225,233.2754 796.4685,232.6384 795.8965,231.9214 795.5975,230.7284 795.5765,231.4704 795.4865,231.9164 795.3345,232.7444 795.1975,233.4894 795.2325,234.3424 795.5765,235.2874 794.9125,234.4804 794.3395,232.8964 794.6645,231.8304 794.9195,230.8184 795.3575,230.3064 795.4865,229.5914 795.9315,231.0204 796.8535,231.6814 797.3145,232.3594"
           style="fill:#05a1e6;fill-opacity:1;fill-rule:nonzero;stroke:none"
           id="path52380" />
        <path
           inkscape:connector-curvature="0"
           d="M 797.0801,233.877 C 797.4141,234.145 798.2481,234.664 798.6561,235.145 799.0621,235.623 799.2711,236.08 799.5571,236.502 798.9551,235.949 798.6271,235.785 798.0141,235.408 797.4571,235.09 796.7031,234.662 796.4001,233.988 796.5821,234.494 796.6741,235.164 796.7341,235.729 796.8241,236.567 797.1681,237.078 797.4201,237.387 796.5981,236.727 796.1011,236.169 795.8811,234.981 795.6621,233.793 795.9121,232.896 795.8281,232.256 796.2641,233.12 796.7481,233.609 797.0801,233.877"
           style="fill:#05a1e6;fill-opacity:1;fill-rule:nonzero;stroke:none"
           id="path52384" />
        <path
           inkscape:connector-curvature="0"
           d="M 796.9336,235.1182 C 797.2966,236.2152 797.6796,236.8692 798.4236,237.4942 799.4006,238.3132 800.4356,238.6972 800.8456,238.8942 800.0466,238.3252 800.0876,237.8322 799.0256,236.8312 798.1956,236.0482 797.6116,235.9862 796.9336,235.1182"
           style="fill:#05a1e6;fill-opacity:1;fill-rule:nonzero;stroke:none"
           id="path52388" />
        <path
           inkscape:connector-curvature="0"
           d="M 806.6191,225.6094 C 806.6091,225.4744 806.6971,221.8834 806.7281,221.5124 806.8051,220.6114 807.0761,220.5994 807.1371,221.4654 807.1541,221.7224 807.2791,225.9494 807.2791,226.0984 806.8981,225.9794 806.6401,225.8314 806.6191,225.6094 M 806.8941,227.3954 C 807.0701,227.4494 807.2011,227.5044 807.2851,227.5344 807.2891,227.5704 807.3461,231.8654 807.3481,232.0124 807.1831,231.9884 806.6481,231.8454 806.5061,231.7904 806.5081,231.6934 806.5721,227.2834 806.5721,227.2834 806.5721,227.2834 806.7361,227.3414 806.8941,227.3954 M 806.4261,233.5724 C 806.7131,233.6594 807.1051,233.6954 807.3771,233.7934 807.3771,234.1544 807.4801,238.4054 807.4941,238.6294 807.5371,239.2554 808.1401,240.9544 806.9061,240.9544 805.7031,240.9544 806.2361,239.1634 806.3301,238.5824 806.3671,238.3584 806.4261,233.9424 806.4261,233.5724 M 808.6701,229.1004 C 808.3291,229.3584 807.9051,229.5464 807.5801,229.6774 807.5721,229.2174 807.5661,228.8524 807.5611,228.5664 807.9451,228.3984 808.2101,228.2124 808.2301,227.9644 808.2501,227.7204 807.9721,227.5284 807.5391,227.3474 L 807.5391,227.3434 807.4431,227.3074 C 807.3671,227.2784 807.2871,227.2484 807.2041,227.2184 807.1021,227.1814 806.9711,227.1334 806.7751,227.0684 806.7421,227.0564 806.7131,227.0464 806.6821,227.0344 806.6331,227.0154 806.5821,226.9984 806.5381,226.9784 806.5011,226.9634 806.4661,226.9494 806.4371,226.9364 805.6781,226.5754 805.6351,226.1034 805.6851,225.6664 805.7261,225.3064 806.0111,225.0734 806.3601,224.8914 806.3511,225.2974 806.3481,225.5884 806.3511,225.6314 806.3691,225.8334 806.4811,225.9744 806.6401,226.0874 806.7641,226.1854 806.9571,226.2644 807.2111,226.3634 807.5551,226.4984 807.8671,226.5804 808.3921,226.7834 809.6151,227.2524 809.6131,228.3924 808.6701,229.1004 M 804.3791,236.0024 804.0061,235.5974 803.8061,235.6304 803.8481,235.8084 804.1891,236.1344 804.4711,236.1554 804.3791,236.0024 Z M 805.2421,235.7754 C 805.4741,236.0984 805.7841,236.2964 806.1121,236.4244 806.1051,236.7954 806.0981,237.1494 806.0921,237.4634 805.4971,237.3224 805.2091,237.1154 805.0841,237.0744 804.7461,236.9614 804.2931,236.9904 803.8051,236.4574 803.7171,236.3614 803.5041,236.0934 803.3531,235.8754 803.2051,235.6624 803.1991,235.3204 803.0901,235.1364 802.9331,234.8714 802.9711,234.7174 802.9711,234.7174 L 802.9881,234.6884 C 802.9691,234.6254 802.9261,234.5274 802.8281,234.4184 802.6641,234.2364 802.4471,234.1344 802.1911,234.1754 802.4141,234.0644 802.7231,234.2204 802.7231,234.2204 802.7231,234.2204 802.6521,234.0354 802.5921,233.7594 802.8111,234.2554 803.0211,234.4854 803.1201,234.5754 803.2211,234.5454 803.4321,234.5394 803.8711,234.7904 804.3381,235.0584 805.0431,235.4984 805.2421,235.7754 M 807.5191,224.9934 C 807.5151,224.8094 807.5091,224.6104 807.5021,224.4054 807.9711,224.1824 808.3891,223.8574 808.5861,223.1734 808.6131,224.2644 808.0631,224.7044 807.5191,224.9934 M 807.7331,237.5734 C 807.7251,237.2774 807.7171,236.9434 807.7091,236.5934 807.8401,236.5784 807.9571,236.5584 808.0311,236.5414 809.0291,236.3044 809.4611,235.7484 809.4671,235.1824 809.4711,234.6304 809.0101,233.9724 807.9821,233.6714 807.8871,233.6424 807.7621,233.6144 807.6441,233.5854 L 807.6441,233.5744 807.4491,233.5194 C 807.2851,233.4844 807.0551,233.4294 806.9141,233.3994 806.7641,233.3674 806.5921,233.3354 806.4741,233.2984 L 806.1661,233.2244 806.1661,233.2254 C 805.9401,233.1614 805.7331,233.0934 805.5741,233.0194 804.4731,232.5054 804.0491,231.5804 804.3011,230.5604 804.4511,229.9524 804.7951,229.5174 805.7091,229.2014 805.9011,229.1344 806.0931,229.0724 806.2831,229.0124 L 806.2621,230.1804 C 806.0231,230.2824 805.8361,230.3854 805.7011,230.5584 805.3421,231.0204 805.4051,231.6674 806.2301,231.9774 L 806.2301,231.9844 806.2891,232.0024 C 806.2951,232.0054 806.3001,232.0074 806.3071,232.0094 806.3341,232.0184 806.3621,232.0244 806.3891,232.0324 L 806.4611,232.0544 C 806.5361,232.0814 806.7341,232.1334 806.9171,232.1794 807.1201,232.2314 807.3221,232.2824 807.5261,232.3304 L 807.6211,232.3544 807.6211,232.3524 C 808.2021,232.4894 808.7701,232.6314 809.2461,232.8784 810.1091,233.3244 810.8321,234.0374 810.7561,235.3244 810.7051,236.2134 809.8141,237.4294 807.7331,237.5734"
           style="fill:#05a1e6;fill-opacity:1;fill-rule:nonzero;stroke:none"
           id="path52392" />
      </g>
    </g>
  </g>
</svg>
